<?xml version="1.0" encoding="UTF-8"?>
<svg id="Layer_2" data-name="Layer 2" xmlns="http://www.w3.org/2000/svg" viewBox="0 0 1862.43 551.03">
  <defs>
    <style>
      .cls-1 {
        fill: #1e1e1e;
      }
    </style>
  </defs>
  <g id="Layer_1-2" data-name="Layer 1">
    <g>
      <path class="cls-1" d="m303.87.09c59.16-.59,112.51,11.55,164.13,39.4,35.57,19.19,68.65,45.36,97.21,83.56,14.34,19.18,26.75,40.91,35.8,66.64,21.59,61.36,19.86,121.86-3.8,180.94-14,34.96-33.52,61.85-55.59,84.59-34.59,35.65-72.78,58.59-113.1,73.95-46.55,17.73-93.9,24.07-141.7,21.17-48.22-2.93-95.47-15.01-140.99-40.41-37.09-20.69-71.6-48.31-100.5-90.06-21.74-31.41-37.84-68.15-43.42-114.11-5.14-42.36.18-81.81,13.99-118.85,15.2-40.76,37.41-71.13,62.9-96.26,37.97-37.44,79.77-60.42,123.8-74.61C237.48,4.84,272.71-.81,303.87.09Zm3.96,528.13c7.64-.65,15.28-1.56,22.93-1.89,27.28-1.17,54.19-6.82,80.79-15.81,37.79-12.76,73.95-32.2,107.13-63.12,23.09-21.52,43.6-47.5,58.93-82,12.22-27.49,19.41-57.73,19.21-91.13-.22-36.22-8.74-68.3-22.89-97.11-18.92-38.48-43.73-65.94-71.37-87.88-48.64-38.62-100.96-57.05-155.22-63.9-29.08-3.67-58.18-3.21-87.27,1.26-24.78,3.81-49.24,10.06-73.28,19.85-35.97,14.65-70.13,35.69-100.97,68.04-21.08,22.12-39.56,48.22-52.28,82.58-18.02,48.71-19.31,98.28-2.76,148.6,8.04,24.44,19.47,44.8,32.55,63.12,21.24,29.74,45.86,51.38,72.25,68.47,55.02,35.62,112.84,49.35,172.25,50.92Z"/>
      <path class="cls-1" d="m1349.4,243.02h54.61v-102.46c13.5-1.88,26.36-.58,39.05-.84,1.79,7.26,2.53,247.7.91,266.38h-39.81v-108.66h-54.54v108.79h-40.08V140.23h39.86v102.79Z"/>
      <path class="cls-1" d="m739.04,406.05V140.48h124.74v49.92h-82.96v55.07h65.03v50.31h-65.07v58.23h82.91v52.03h-124.66Z"/>
      <path class="cls-1" d="m1687.04,286.63c10.99,40,21.78,79.3,32.8,119.41h-30.76c-8.94-36.44-17.99-73.32-27.17-110.76h-27.45v110.5h-28.68V141.38c1.54-.33,3.15-.98,4.75-.98,18.51.03,37.02-.24,55.52.48,6.06.24,12.28,2.14,18.08,4.94,17.37,8.4,28.3,30.56,29.16,58.86.3,9.96,0,20.09-.88,29.97-1.88,20.87-9.34,36.44-21.03,47.45-1.25,1.18-2.43,2.53-4.34,4.54Zm-52.51-25.44c9.67,0,18.63.82,27.49-.21,10.68-1.25,18.13-10.12,21.76-25.89,2.17-9.41,2.67-19.09,1.65-28.78-1.43-13.62-5.67-24.58-14.71-29.32-11.76-6.15-23.84-3.24-36.19-3.42v87.61Z"/>
      <path class="cls-1" d="m1743.33,141.26c18.46,0,36.1-.73,53.68.35,7.28.45,14.74,3.61,21.62,7.55,19.74,11.3,31.67,34.33,37.76,64.2,8.8,43.16,8.18,86.47-3.08,128.36-10.04,37.34-28.12,60.64-55.42,63.18-17.96,1.67-35.99,1.56-54.56,2.28V141.26Zm28.08,34.2v196.56c5.92,0,11.41.56,16.84-.1,17.98-2.17,30.7-15.7,37.34-41.65,1.08-4.22,2.26-8.44,2.97-12.82,4.81-29.46,4.94-59.03.2-88.51-2.04-12.71-5.57-24.47-11.56-34.21-12.6-20.47-28.67-21.28-45.8-19.27Z"/>
      <path class="cls-1" d="m1028.39,141.13c2-.29,3.65-.74,5.29-.74,17.66.03,35.32-.24,52.97.43,6.29.24,12.73,1.88,18.78,4.54,15.67,6.88,25.15,23.31,28.87,47.32,2.38,15.35,2.38,30.86-.03,46.25-2.79,17.81-9.23,31.83-19.3,41.9-1.75,1.75-3.51,3.47-5.77,5.7,10.9,39.65,21.7,78.96,32.77,119.25h-30.8c-8.85-36.13-17.82-72.74-26.99-110.14-9.03-1.82-18.01-1.44-27.97-.31v110.56h-27.82V141.13Zm28.29,119.8c9.99,0,19.57,1.14,28.98-.3,10.99-1.68,17.91-12.38,20.94-28.49.87-4.62,1.53-9.53,1.53-14.31-.01-21.23-4.58-35.89-16.38-41.41-11.36-5.32-22.98-2.88-35.07-2.63v87.14Z"/>
      <path class="cls-1" d="m1281.85,274.11c.4,25.7-1.21,50.78-6.67,74.97-5.45,24.15-14.2,44.92-30.33,54.74-26.45,16.11-63.13,9.79-78.64-45.38-5.44-19.34-8.09-39.66-8.87-60.35-1.15-30.78-.95-61.59,4.69-91.65,2.83-15.11,6.97-29.18,13.49-41.52,12.15-23,28.63-30.41,47.06-29.57,8.92.41,17.7,3.15,25.72,10.01,13.98,11.98,22.07,30.85,27.08,53.3,5.48,24.55,6.91,49.96,6.47,75.46Zm-29.06-1.64c-.43-10.24-.58-21.94-1.49-33.5-1.25-15.75-3.02-31.43-7.87-45.79-5.04-14.92-12.89-22.4-24.12-22.36-11.26.04-19.23,7.75-23.91,22.78-2.52,8.11-4.36,16.93-5.55,25.73-4.49,33.34-4.48,66.99-.98,100.47,1.22,11.68,3.65,23.4,6.88,34.16,4.56,15.19,13.19,22.36,24.21,22.19,10.82-.16,18.65-7.98,23.45-22.57,1.8-5.46,3.2-11.31,4.32-17.19,3.88-20.4,4.34-41.48,5.07-63.93Z"/>
      <path class="cls-1" d="m971.59,140.98h25.18v11.02c0,53.51.18,107.02-.12,160.52-.08,14.51-1.14,29.13-2.64,43.48-2.54,24.25-12.2,40.65-27.06,48.68-18.43,9.96-37.21,9.35-55.49-1.59-11.83-7.08-19.73-20.7-22.53-39.51-2.15-14.43-3.64-29.41-3.75-44.17-.42-56.74-.18-113.5-.16-170.25,0-2.52.19-5.03.32-8.16h27.22c0,3.98,0,7.73,0,11.48.06,54.8.06,109.61.23,164.41.03,8.39.52,16.86,1.39,25.15,2.12,20.3,10.16,31.72,24.2,33.49,5.18.65,10.74-.16,15.71-2.44,11.37-5.2,15.4-19.36,16.26-35.88.75-14.52,1.14-29.12,1.19-43.69.14-46.7.05-93.39.05-140.09,0-3.83,0-7.65,0-12.46Z"/>
      <path class="cls-1" d="m1589.26,406.2h-28.69c-3.62-21.61-7.26-43.4-11.17-66.75-16.93-.27-33.83-.33-51.61.14-3.68,22.13-7.3,43.94-11.01,66.31h-26.96c16.76-88.27,33.44-176.07,50.26-264.67h32.49c15.45,87.67,30.95,175.69,46.68,264.97Zm-45.45-101.2c-6.57-40.11-12.99-79.3-19.41-118.5-.59-.03-1.18-.07-1.76-.1-6.37,39.13-12.74,78.26-19.31,118.61h40.48Z"/>
      <path class="cls-1" d="m327.31,344.62v67.24h-134.49V138.95h134.48v63.24h-79.52v36.48h121.9v-99.61h53.42v272.52h-53.08v-107.43c-5.07-2.55-114.2-3.17-122.56-.89v41.36h79.85Z"/>
    </g>
  </g>
</svg>