<?xml version="1.0" encoding="UTF-8"?>
<svg id="Layer_2" data-name="Layer 2" xmlns="http://www.w3.org/2000/svg" viewBox="0 0 2832.24 683.94">
  <defs>
    <style>
      .cls-1 {
        stroke: #1e1e1e;
        stroke-miterlimit: 10;
        stroke-width: 20px;
      }

      .cls-1, .cls-2 {
        fill: #1e1e1e;
      }
    </style>
  </defs>
  <g id="Layer_1-2" data-name="Layer 1">
    <g>
      <path class="cls-2" d="m1380.31,494.23h-104.67V61.24h104.67v432.99Z"/>
      <path class="cls-2" d="m1674.5,605.42V189.69h105.43v415.73h-105.43Z"/>
      <path class="cls-2" d="m2289.61,494.73h-103.81V193.12h103.81v301.61Z"/>
      <path class="cls-2" d="m1013.75,493.04V191.42c23,0,43.94-1.84,64.54.48,24.3,2.73,41.59,22.75,42.05,51.86,1.3,82.07.45,164.18.45,249.28h-107.05Z"/>
      <path class="cls-2" d="m2410.36,494.84h-107.06V192.39c22.46,0,45.51-2.42,68,.67,23.14,3.18,38.34,25.08,38.72,55.2,1.01,80.42.34,160.87.34,246.57Z"/>
      <path class="cls-2" d="m787.81,495.53c-11.57-19.24-19.57-36.23-30.52-50.06-28.6-36.11-58.52-70.79-87.84-106.12-23.93-28.84-30.61-61.84-17.13-99.44,12.72-35.5,37.82-46.93,62.97-48.62,12.63,23.63,21.25,45.24,34.09,62.62,25.87,35.02,54.11,67.67,81.23,101.46,6.76,8.43,13.87,16.79,19.25,26.38,26.29,46.82,9.17,97.57-37.49,110.95-9.39,2.69-19.42,2.3-24.56,2.84Z"/>
      <path class="cls-2" d="m1520.87,190.49v303.49c-42.63,6.08-74.28-13.04-96.32-50.75-34.98-59.87-37.3-124.06-7.79-187.79,21.07-45.49,54.66-68.27,104.11-64.96Z"/>
      <path class="cls-2" d="m1796.01,492.56V192.06c72.33-4.87,123.19,58.71,122.87,150.29-.32,91.7-51.88,155.87-122.87,150.21Z"/>
      <path class="cls-2" d="m1260.56,190.47v303.98c-42.01,7.47-73.38-11.46-95.76-48.85-34.8-58.13-37.19-120.86-10.07-183.84,20.6-47.85,54.82-71.74,105.84-71.28Z"/>
      <path class="cls-2" d="m2166.46,492.96h-105.98V194.66c5.29-1.98,8.64-4.23,12.06-4.36,63.62-2.38,98.5-8.15,94.38,100.61-2.5,65.96-.46,132.15-.46,202.05Z"/>
      <path class="cls-2" d="m998.96,494.47c-41.81,4.38-81.77,9.3-108.18-36.47-16.57-28.72-16.4-60.78.4-89.37,26.58-45.23,66.11-41.61,107.78-36.03v161.86Z"/>
      <path class="cls-2" d="m2044.86,496.08c-39.45,3.78-78.08,8.45-104.83-33.66-17.67-27.8-18.31-59.79-3.21-89.27,24.59-47.99,65.41-43.21,108.04-41.39v164.31Z"/>
      <path class="cls-2" d="m1535.85,326.31v-130.9c70.08-17.39,124.37,40.88,120.77,130.9h-120.77Z"/>
      <path class="cls-2" d="m998.81,193.81v120.18h-96.25c-14.75-92.06,15.41-130.27,96.25-120.18Z"/>
      <path class="cls-2" d="m2044.75,193.58v117.94h-97.28c-14.74-88.41,17.75-129.12,97.28-117.94Z"/>
      <path class="cls-2" d="m767.23,494.54h-112.25v-140.53c38.5,48.2,72.26,90.46,112.25,140.53Z"/>
      <path class="cls-2" d="m732.99,192.35h111.4v139.13c-38.01-47.47-71.86-89.74-111.4-139.13Z"/>
      <path class="cls-2" d="m162.96,112.54c4.96,53.64,17.54,251-63.88,269.09-1.69.38-3.48-.38-4.6-1.91-59.9-82.12,32.26-229.7,59.75-270.1,2.74-4.02,8.26-2.19,8.73,2.92Z"/>
      <path class="cls-2" d="m272.67,0s40.47,258.42-62.46,282.42c-1.71.4-3.53-.34-4.66-1.9C135.76,184.74,272.67,0,272.67,0Z"/>
      <path class="cls-2" d="m330.44,254.17c4.54,52.03,15.04,238.03-63.5,268.4-1.85.72-3.95,0-5.21-1.74-59.3-82.15,32.48-229.21,59.98-269.64,2.74-4.03,8.28-2.15,8.73,2.98Z"/>
      <path class="cls-2" d="m464.7,71.91c5.81,52.53,21.46,247.83-64,269.41-1.73.44-3.58-.31-4.73-1.89-59.95-82.37,32.85-230.47,60.03-270.36,2.7-3.96,8.14-2.2,8.7,2.83Z"/>
      <path class="cls-2" d="m531.47,237.73c4.54,52.03,15.04,238.03-63.5,268.4-1.85.72-3.95,0-5.21-1.74-59.3-82.15,32.48-229.21,59.98-269.64,2.74-4.03,8.28-2.15,8.73,2.98Z"/>
      <line class="cls-1" x1="102.77" y1="353.4" x2="39.9" y2="634.19"/>
      <line class="cls-1" x1="294.29" y1="382.17" x2="237.86" y2="634.19"/>
      <line class="cls-1" x1="492.25" y1="382.17" x2="435.82" y2="634.19"/>
      <line class="cls-1" x1="404.94" y1="310.31" x2="336.84" y2="634.19"/>
      <line class="cls-1" x1="216.47" y1="254.77" x2="137.84" y2="634.19"/>
      <line class="cls-1" y1="634.19" x2="1785.93" y2="634.19"/>
      <path class="cls-2" d="m1934.81,603.87h10v69.02h34.85l-1.32,9.92h-43.53v-78.94Z"/>
      <path class="cls-2" d="m2002.96,660.16l-6.87,22.65h-9.92l23.79-78.94h12.38l24.81,78.94h-10.62l-7.11-22.65h-26.46Zm24.01-9.92c-6.11-19.97-9.55-30.92-11.05-37.14h-.1c-1.65,6.9-5.48,20.07-10.41,37.14h21.55Z"/>
      <path class="cls-2" d="m2063.18,613.78h-21.52v-9.92h53.11v9.92h-21.53v69.02h-10.05v-69.02Z"/>
      <path class="cls-2" d="m2114.28,603.87v78.94h-10v-78.94h10Z"/>
      <path class="cls-2" d="m2132.22,682.8v-78.94h13.01c9.43,18.32,29.41,56.2,33.07,64.78h.14c-.67-9.77-.62-22.46-.62-35.37v-29.42h9.35v78.94h-12.25c-8.59-16.81-29.63-58.01-33.68-66.91h-.14c.48,8.6.52,22.51.52,36.74v30.17h-9.39Z"/>
      <path class="cls-2" d="m2263.97,642.92c0,21.76-10.56,41.02-31.91,41.02-20.08,0-31.15-17.97-31.15-40.61s11.47-40.61,31.97-40.61c19.11,0,31.1,16.59,31.1,40.19Zm-52.63.08c0,16.75,7.13,31.08,21.14,31.08,15.14,0,21.05-14.65,21.05-30.99s-6.71-30.49-21.08-30.49-21.12,13.84-21.12,30.4Z"/>
      <path class="cls-2" d="m2286.61,660.16l-6.87,22.65h-9.92l23.79-78.94h12.38l24.81,78.94h-10.62l-7.11-22.65h-26.46Zm24.01-9.92c-6.11-19.97-9.55-30.92-11.05-37.14h-.1c-1.65,6.9-5.48,20.07-10.41,37.14h21.55Z"/>
      <path class="cls-2" d="m2398.46,649.93c0-14.43.14-29.38.43-37.8h-.38c-2.94,13.42-13.05,45.87-20.54,70.67h-8.85c-5.66-20.47-16.13-56.93-19.15-70.84h-.33c.53,9.15.77,26.43.77,39.97v30.87h-9.34v-78.94h14.92c7.2,23.76,15.89,54.28,18.15,64.66h.15c1.6-8.12,11.96-41.48,19.44-64.66h14.46v78.94h-9.73v-32.88Z"/>
      <path class="cls-2" d="m2469.11,646.45h-33.27v26.44h36.57l-1.26,9.92h-45.09v-78.94h44.62v9.92h-34.84v22.74h33.27v9.92Z"/>
      <path class="cls-2" d="m2494.14,648.64v34.17h-9.88v-78.94h26.95c14.01,0,21.49,8.93,21.49,21.22,0,10.32-5.01,16.45-11.17,18.59,5.09,1.68,9.92,6.35,9.92,20.13v3.48c0,5.41-.17,12.14.92,15.52h-9.66c-1.22-3.41-1.19-9.52-1.19-17.11v-1.58c0-10.74-2.55-15.48-14.4-15.48h-12.98Zm0-9.71h14.19c9.86,0,14.11-4.35,14.11-12.79s-4.46-12.55-13.23-12.55h-15.07v25.35Z"/>
      <path class="cls-2" d="m2557.41,603.87v78.94h-10v-78.94h10Z"/>
      <path class="cls-2" d="m2628.96,660.05c-2.94,13.65-11.65,23.76-27.24,23.76-20.38,0-30.53-17.87-30.53-40.21s10.22-40.87,30.94-40.87c16.28,0,24.92,10.94,26.84,24.14h-10c-2.22-8.12-6.85-14.53-17.22-14.53-14.32,0-20.13,15.23-20.13,30.89s5.44,30.98,20.52,30.98c10.22,0,14.48-7.07,16.78-14.16h10.05Z"/>
      <path class="cls-2" d="m2651.27,660.16l-6.87,22.65h-9.92l23.79-78.94h12.38l24.81,78.94h-10.62l-7.11-22.65h-26.46Zm24.01-9.92c-6.11-19.97-9.55-30.92-11.04-37.14h-.1c-1.65,6.9-5.48,20.07-10.41,37.14h21.55Z"/>
      <path class="cls-2" d="m2705.63,682.8v-78.94h13.01c9.43,18.32,29.41,56.2,33.07,64.78h.14c-.67-9.77-.62-22.46-.62-35.37v-29.42h9.35v78.94h-12.25c-8.59-16.81-29.63-58.01-33.68-66.91h-.14c.48,8.6.52,22.51.52,36.74v30.17h-9.39Z"/>
      <path class="cls-2" d="m2788.05,660.16l-6.87,22.65h-9.92l23.79-78.94h12.38l24.81,78.94h-10.62l-7.11-22.65h-26.46Zm24.01-9.92c-6.11-19.97-9.55-30.92-11.05-37.14h-.1c-1.65,6.9-5.48,20.07-10.41,37.14h21.55Z"/>
    </g>
  </g>
</svg>