<?xml version="1.0" encoding="UTF-8"?>
<svg id="Layer_2" data-name="Layer 2" xmlns="http://www.w3.org/2000/svg" viewBox="0 0 347.71 328.39">
  <defs>
    <style>
      .cls-1 {
        fill: #ffad05;
      }

      .cls-2 {
        fill: #af7000;
      }
    </style>
  </defs>
  <g id="Layer_1-2" data-name="Layer 1">
    <g>
      <path class="cls-1" d="m1.9,126.86c-2.35-3.36-2.46-7.78-.69-11.48.79-1.64,1.66-3.11,2.92-4.08,8.43-6.53,17.3-12.52,26.27-18.31,15.5-10.02,31.18-19.75,46.81-29.57,18.43-11.58,36.91-23.11,55.33-34.71,12.64-7.96,25.36-15.81,37.81-24.06,10.47-6.95,18.19-6.01,27.86,2.31,8.22,7.07,17.55,12.83,26.27,19.33,26.63,19.84,53.19,39.78,79.81,59.63,4.14,3.09,8.33,6.19,12.81,8.74,12.06,6.89,10.73,16.48.6,24.15-10.42,7.89-21.8,14.53-32.86,21.56-29.45,18.72-58.93,37.4-88.44,56.02-14.2,8.96-28.54,17.69-42.75,26.64-4.62,2.91-9.13,2.88-13.5-.05-10.26-6.89-20.39-13.97-30.58-20.95-26.93-18.46-53.88-36.88-80.77-55.4-8.66-5.96-17.27-12.01-25.62-18.38-.49-.37-.9-.84-1.28-1.38Z"/>
      <path class="cls-2" d="m159.73,328.39c-6.53-3.16-13.59-5.56-19.52-9.61-40.39-27.64-80.55-55.61-120.76-83.51-3.49-2.42-6.97-4.88-10.23-7.59-6.73-5.61-8.96-13.69-4.85-21.36,2.53-4.72,6.25-9.26,10.48-12.53,7.43-5.74,15.69-10.39,23.53-15.6,3.03-2.01,5.45-1.78,8.5.4,25.38,18.17,50.9,36.14,76.36,54.21,13.99,9.93,27.82,10.79,42.68,1.12,33.58-21.86,67.5-43.19,101.32-64.68,7.95-5.05,15.9-10.12,24.17-14.61,2.28-1.24,6.55-1.61,8.45-.29,12.73,8.85,25.39,17.87,37.45,27.6,14.47,11.67,13.82,26.78-1.75,37.37-19.84,13.5-40.12,26.36-60.38,39.23-32.89,20.89-65.87,41.63-98.94,62.23-4.76,2.96-10.23,4.77-16.5,7.62Z"/>
    </g>
  </g>
</svg>