<?xml version="1.0" encoding="UTF-8"?>
<svg id="Layer_2" data-name="Layer 2" xmlns="http://www.w3.org/2000/svg" viewBox="0 0 357.98 202.22">
  <defs>
    <style>
      .cls-1 {
        fill: #ffad05;
      }
    </style>
  </defs>
  <g id="Layer_1-2" data-name="Layer 1">
    <path class="cls-1" d="m115.22,149.25c-.21-.32-.43-.59-.68-.79-3.12-2.52-14.99-1.14-18.91-1.13-6.39.03-12.76.86-18.69,3.79-14.5,7.18-23.87,23.94-35.1,36.03-5.57,6-10.67,10.96-18.38,12.59-2.01.42-21.76,1.69-21.96.38-.56-3.76-1.41-6.85-1.43-9.94C-.03,166.06,0,141.95.03,117.83c0-5.04,1.89-8.88,5.14-12.46,9.8-10.78,19.24-21.99,28.86-32.99,2.66-3.04,5.53-5.82,8.17-8.88,14.08-16.27,28.5-32.19,42.05-49.04C93,3.58,102.7-.16,115.62,0c62.22.82,124.44.47,186.67.53,14.29.01,28.57.02,42.86.04,1.32,0,2.64-.02,3.94.13,6.92.79,8.61,2.65,8.65,10.54.14,23.25.04,46.49.23,69.74.05,6.33-2.82,10.55-6.35,14.62-26.64,30.75-53.28,61.5-79.88,92.28-3.19,3.69-6.46,7.45-10.5,9.78-7.71,4.45-28.74,7.26-28.77-6.94-.02-7.52-.04-15.04-.06-22.56,0-3.68,1.81-16.99-.92-19.62-.61-.59-1.47-.65-2.27-.69-14.53-.7-30.24-3.26-43.22,6.16-8.14,5.91-14.29,14.75-20.52,23.21-6.23,8.46-12.94,16.91-21.64,21.62-11.87,6.41-29.49,4.71-27.6-13.91.92-9.03,4.03-27.75-1.01-35.68Zm-34.45-108.07c.25.6.5,1.21.75,1.81,4.03-.21,8.07-.64,12.1-.6,29.88.3,59.75.88,89.63,1.01,42.68.19,85.35.13,128.03-.08,2.73-.01,6.03-1.41,8.07-3.47,6.09-6.12,11.72-12.85,17.44-19.44,1.24-1.43,2.1-3.28,3.96-6.25-4.21-.33-7.1-.75-9.99-.75-46.06-.03-92.13-.05-138.19,0-26.89.03-53.77.15-80.66.32-4.28.03-8.75-.22-12.15,3.78-5.4,6.35-10.82,12.68-16.16,19.1-1.11,1.33-1.89,3.03-2.82,4.56ZM21.22,111.53c2.83.34,5.52.92,8.22.94,14.28.14,28.55.18,42.83.18,59.18,0,118.36-.06,177.54.08,4.96.01,8.56-1.94,11.85-6.03,4.47-5.55,9.29-10.72,13.93-16.08,1.2-1.39,2.3-2.89,3.45-4.34-.21-.54-.41-1.09-.62-1.63-6.7-.23-13.41-.66-20.11-.67-32.29-.03-64.58-.03-96.86.12-12.39.06-24.77.7-37.16.8-25.34.21-50.68.15-76.02.43-2.66.03-6.07.69-7.82,2.63-6.45,7.17-12.34,15-19.22,23.55ZM345.41,40.38c-1.9,1.52-2.74,2-3.36,2.73-15.15,17.77-30.21,35.63-45.42,53.33-10.45,12.16-20.97,24.26-31.75,36.02-3.22,3.51-4.42,7.3-4.41,12.06.01,9.34-.07,18.68,0,28.02.01,1.96.47,3.91.9,7.2,3.47-3.67,6.01-6.18,8.37-8.91,4.38-5.07,8.57-10.37,12.99-15.39,19.27-21.93,38.6-43.79,57.9-65.68.54-.61,1.04-1.25,1.6-1.84,2.92-3.13,4.28-6.92,4.23-11.59-.11-9.77.03-19.55-.04-29.32-.01-1.82-.53-3.63-1-6.61Zm-172.42,36.36c.28.59.55,1.18.83,1.76,2.58.13,5.15.37,7.73.38,33.24.11,66.48.28,99.73.1,8.9-.05,17.4-14.58,22.98-21.28,1.86-2.24,4.07-4.72,4.79-7.77-2.31-.83-5.13-1.12-7.58-1.09-20.27.27-40.53.76-60.8.96-12.57.12-25.15.14-37.71-.41-4.29-.19-8.07-.71-11.27,3.45-3.12,4.05-6.67,7.63-9.82,11.65-3.09,3.94-5.92,8.16-8.86,12.25Zm-124.31-.45c.26.6.52,1.2.78,1.8,1.77.15,3.54.43,5.32.44,26.13.04,52.26.04,78.39.07,4.89,0,9.79-.11,14.67-.06,5.24.06,10.69,1.16,15.71-1.2,3.52-1.65,6.31-4.81,9-7.91,3.97-4.58,7.92-9.19,11.84-13.83.75-.89,1.53-1.83,1.8-3.03.61-2.64-1.37-3.43-3.14-3.39-35.27.8-70.51.77-105.79-.13-1.8-.05-4.19.09-5.35,1.34-7.89,8.46-15.53,17.23-23.25,25.91Zm-34.46,56.5c3.05.22,5.09.56,7.12.49,9.19-.32,18.38-1.19,27.57-1.07,21.39.26,42.77,1.29,64.16,1.43,43.42.29,86.85.22,130.27.22,3.65,0,7.3-.59,11.21-.93v-11.28c-1.83-.56-3.23-1.32-4.65-1.37-5.05-.16-10.1-.1-15.15-.09-28.57.08-57.13.22-85.7.26-42.86.05-85.72.02-128.58.09-1.97,0-3.94.63-6.24,1.02v11.23Zm161.28,9.65c-.94-.2-2.7-.87-4.48-.92-6.2-.17-12.41-.26-18.61-.11-7.04.17-8.35,2.17-7.95,10.48.25,5.15,0,10.34.24,15.49.15,3.41.76,6.8,1.19,10.34,10.3-12.27,19.85-23.64,29.61-35.28Zm-115.33,2.08l-.38-1.46c-1.41-.2-2.83-.5-4.24-.57-6.7-.32-13.39-.59-20.09-.87-4.09-.17-5.88,1.53-5.97,6.46-.15,8.66-.04,17.32.05,25.98,0,.94.58,1.88,1.17,3.65,11.73-9.5,18.95-23.31,29.47-33.2Zm187.28,44c5.99-2.2,7.33-6.42,7.43-11.18.21-10.19.17-20.39.12-30.59,0-1.43-.61-2.85-1.05-4.75h-9.18c0,13.48-.13,26.24.12,39,.05,2.44,1.61,4.85,2.55,7.52Zm-108.8-45.52c-7.7-2.65-9.69-1.33-9.68,6.15,0,10.39.37,20.79.66,31.18.1,3.52.88,6.88,4.78,6.28,3.5-.53,4.17-3.79,4.16-7.33-.01-3.44.08-6.88.08-10.32.01-8.63,0-17.25,0-25.96Zm-117.73-.41c-2.13-.49-5.03-1.64-6.42,1.14-.69,1.37-.71,3.04-.71,4.62-.02,9.41-.04,18.82-.06,28.24-.02,8,.45,9.95,7.2,9.47,0-14.83,0-28.99-.01-43.46Zm240.39-15.78c1.49-.83,2.9-1.16,3.73-2.14,6.26-7.46,12.59-14.87,18.5-22.69,2.34-3.09,3.02-7.21.98-10.57-7.65,8.24-15.33,16.13-22.56,24.53-2.12,2.47-3.23,6.37-.64,10.87Zm30.32-33.34c8.1-9.78,15.78-18.83,23.15-28.2,1.26-1.6,1.21-4.59,1.76-6.94-.37-.39-.74-.78-1.11-1.17-1.54.72-3.45.99-4.55,2.23-5.91,6.65-11.72,13.42-17.35,20.39-2.73,3.38-4.43,7.41-1.9,13.7Zm55.11-70.8c-2.19.61-2.87.56-3.22.93-7.32,7.75-14.76,15.37-21.81,23.43-2.21,2.53-2.29,6.2,0,9.23.64-.13,1.13-.06,1.35-.31,7.36-8.64,14.77-17.22,21.93-26.07,1.12-1.38,1.04-4.06,1.76-7.21Z"/>
  </g>
</svg>