<?xml version="1.0" encoding="UTF-8"?>
<svg id="Layer_2" data-name="Layer 2" xmlns="http://www.w3.org/2000/svg" viewBox="0 0 1861.8 511.22">
  <defs>
    <style>
      .cls-1 {
        fill: #1e1e1e;
        stroke: #1e1e1e;
        stroke-miterlimit: 10;
        stroke-width: 1.78px;
      }
    </style>
  </defs>
  <g id="Layer_1-2" data-name="Layer 1">
    <g>
      <path class="cls-1" d="m437.7,120.69c0-10.58-2.16-18.43-6.47-23.56-4.31-5.12-9.7-7.69-16.16-7.69s-12.28,2.48-16.81,7.44c-4.53,4.96-6.79,12.89-6.79,23.81,0,11.58,2.59,20.58,7.76,27.03,5.17,6.45,11.69,11.9,19.56,16.36,7.86,4.47,16.33,9.01,25.38,13.64,9.05,4.63,17.51,11.16,25.38,19.59,7.86,8.43,14.39,19.51,19.56,33.23,5.17,13.72,7.76,31.99,7.76,54.8s-2.37,40.42-7.11,54.8c-4.74,14.38-10.94,25.79-18.59,34.22-7.65,8.43-16.44,14.3-26.35,17.61-9.92,3.3-20.04,4.96-30.39,4.96-11.43,0-22.04-2.23-31.84-6.7-9.81-4.46-18.27-11.33-25.38-20.58-7.11-9.25-12.72-21.08-16.81-35.46-4.1-14.38-6.14-31.32-6.14-50.83v-16.37h58.19v16.37c0,12.89,2.31,22.73,6.95,29.51,4.63,6.78,9.86,10.17,15.68,10.17,6.47,0,12.12-2.64,16.97-7.93,4.85-5.28,7.27-15.2,7.27-29.76,0-9.59-2.64-17.6-7.92-24.05-5.28-6.45-11.8-12.4-19.56-17.85-7.76-5.45-16.28-11.16-25.54-17.11-9.27-5.95-17.78-13.3-25.54-22.07-7.76-8.76-14.28-19.42-19.56-31.99-5.28-12.56-7.92-28.43-7.92-47.61s2.48-36.2,7.44-50.09c4.96-13.88,11.32-25.21,19.07-33.97,7.76-8.76,16.43-15.13,26.02-19.09,9.59-3.97,19.12-5.95,28.61-5.95,10.78,0,21.12,2.23,31.03,6.7,9.91,4.46,18.59,11.58,26.02,21.32,7.44,9.76,13.36,22.32,17.78,37.69,4.42,15.37,6.63,33.81,6.63,55.3v8.43h-58.19v-24.3Zm128.09-32.39v202.66c0,6.34,1.92,11.09,5.77,14.26,3.85,3.17,7.18,4.75,10.01,4.75s6.16-1.67,10.01-5.02c3.85-3.34,5.77-8,5.77-13.99V88.3h51.5v290.85h-48.8v-25.88c-5.14,9.86-11.74,17.52-19.82,22.97-8.08,5.46-16.87,8.19-26.36,8.19-6.93,0-6.97-1.5-13-4.49-6.03-2.99-11.29-7.13-15.78-12.41-4.49-5.28-8.02-11.53-10.58-18.75-2.57-7.21-3.85-15.05-3.85-23.5V88.3h55.14Zm96.84,407.23V88.13h56.54v21.65c5.39-9.85,11.48-16.98,18.28-21.39,6.8-4.4,13.79-6.6,20.97-6.6,8.72,0,12.46,2.38,19.01,7.13,6.54,4.75,11.99,11.27,16.36,19.54,4.36,8.28,7.63,17.69,9.82,28.25,2.18,10.56,3.27,21.65,3.27,33.27v106.67c0,12.33-.83,24.21-2.5,35.64-1.67,11.44-4.56,21.48-8.66,30.1-4.11,8.63-9.56,15.58-16.36,20.86-6.8,5.28-11.44,7.92-21.7,7.92-7.45,0-14.82-1.94-22.13-5.81-7.31-3.87-12.89-10.38-16.74-19.54v149.7h-56.16Zm70.4-192.47c4.36,0,8.14-1.58,11.35-4.75,3.21-3.17,4.81-7.92,4.81-14.26v-116.71c0-4.93-1.35-9.32-4.04-13.2-2.69-3.87-6.74-5.81-12.12-5.81-4.37,0-7.89,1.94-10.58,5.81-2.69,3.88-4.04,8.28-4.04,13.2v116.71c0,6.34,1.54,11.09,4.62,14.26,3.08,3.17,6.41,4.75,10.01,4.75Zm205.88,57.66c-12.06,18.48-30.79,27.73-56.19,27.73-26.69,0-37.08-8.89-49.9-26.67-12.83-17.77-19.24-62.94-19.24-100.97v-65.48c0-17.24,1.28-33,3.85-47.26,2.56-14.26,6.86-26.4,12.89-36.44,6.03-10.03,14.05-17.77,24.06-23.24,10.01-5.45,13.08-8.18,27.97-8.18,13.09,0,24.37,2.73,33.87,8.18,9.49,5.46,17.25,12.59,23.28,21.39,6.02,8.81,7.2,18.57,10.02,29.31,2.82,10.74,4.23,21.57,4.23,32.47v71.29h-87.96v73.26c0,5.99,1.86,10.39,5.58,13.2,3.72,2.82,7.12,4.22,10.2,4.22,3.33,0,6.67-1.4,10.01-4.22,3.33-2.81,5-7.21,5-13.2v-54.49h57.17c0,33.1-2.78,80.61-14.83,99.09Zm-38.81-200.77c0-4.22-1.41-8.53-4.23-12.94-2.83-4.4-6.16-6.6-10.01-6.6-4.62,0-8.34,2.2-11.16,6.6-2.83,4.41-4.23,8.71-4.23,12.94v34.85h29.63v-34.85Zm200.75,65.75h-52.29v-64.16c0-2.81-.96-5.02-2.89-6.6-1.92-1.58-3.66-2.38-5.19-2.38-1.29,0-6.26.79-8.18,2.38-1.92,1.59-2.89,3.79-2.89,6.6v222.13h-61.58V87.61h53.5v20.07c5.13-9.85,13.57-16.9,18.58-21.12,5-4.22,12.25-6.34,21.74-6.34,6.93,0,16.82,1.67,21.31,5.02,4.49,3.35,8.08,7.75,10.78,13.2,2.69,5.46,4.55,11.88,5.58,19.27,1.02,7.39,1.54,15.31,1.54,23.76v84.23Zm602.36,0h-52.29v-64.16c0-2.81-.96-5.02-2.89-6.6-1.92-1.58-3.66-2.38-5.19-2.38-1.29,0-6.26.79-8.18,2.38-1.92,1.59-2.89,3.79-2.89,6.6v222.13h-61.58V87.61h53.5v20.07c5.13-9.85,13.57-16.9,18.58-21.12,5-4.22,12.25-6.34,21.74-6.34,6.93,0,16.82,1.67,21.31,5.02,4.49,3.35,8.08,7.75,10.78,13.2,2.69,5.46,4.55,11.88,5.58,19.27,1.02,7.39,1.54,15.31,1.54,23.76v84.23ZM1168.98,28.83v81.72c3.85-9.15,9.43-15.66,16.74-19.54,7.31-3.87,14.68-5.81,22.13-5.81,10.26,0,18.79,2.64,25.59,7.92,6.8,5.28,12.25,12.23,16.36,20.86,4.1,8.63,6.99,18.66,8.66,30.1,1.67,11.44,2.5,23.32,2.5,35.64v121.85c0,11.62-1.09,22.71-3.27,33.27-2.18,10.56-5.46,19.99-9.82,28.25-4.37,8.28-9.81,14.79-16.36,19.54-6.54,4.75-14.18,7.13-22.9,7.13-7.18,0-14.18-2.2-20.97-6.6-6.8-4.4-12.89-11.53-18.28-21.39v21.65h-54.81V28.83h54.42Zm14.24,124.5c-3.6,0-6.93,1.58-10.01,4.75-3.08,3.17-4.62,7.92-4.62,14.26v131.88c0,4.93,1.35,9.33,4.04,13.2,2.69,3.88,6.22,5.81,10.58,5.81,5.39,0,9.43-1.93,12.12-5.81,2.69-3.87,4.04-8.27,4.04-13.2v-131.88c0-6.34-1.6-11.09-4.81-14.26-3.21-3.17-6.99-4.75-11.35-4.75ZM1860.91,28.83v354.6h-54.81v-21.65c-5.39,9.86-11.48,16.99-18.28,21.39-6.8,4.4-13.79,6.6-20.97,6.6-8.72,0-16.36-2.38-22.9-7.13-6.54-4.75-11.99-11.26-16.36-19.54-4.36-8.27-7.63-17.69-9.82-28.25-2.18-10.56-3.27-21.65-3.27-33.27v-121.85c0-12.32.83-24.2,2.5-35.64,1.67-11.44,4.56-21.47,8.66-30.1,4.11-8.62,9.56-15.58,16.36-20.86,6.8-5.28,15.34-7.92,25.59-7.92,7.45,0,14.82,1.94,22.13,5.81,7.31,3.88,12.89,10.39,16.74,19.54V28.83h54.42Zm-80.02,129.25c-3.21,3.17-4.81,7.92-4.81,14.26v131.88c0,4.93,1.35,9.33,4.04,13.2,2.69,3.88,6.74,5.81,12.12,5.81,4.37,0,7.89-1.93,10.58-5.81,2.69-3.87,4.04-8.27,4.04-13.2v-131.88c0-6.34-1.54-11.09-4.62-14.26-3.08-3.17-6.41-4.75-10.01-4.75-4.36,0-8.14,1.58-11.35,4.75Zm-443.77-77.87c12.31,0,16.36,2.38,25.59,7.13,9.24,4.75,16.99,11.18,23.28,19.28,6.28,8.1,11.03,17.52,14.24,28.25,3.21,10.74,4.81,30.9,4.81,43.22v122.44c0,12.33-1.6,23.85-4.81,34.59-3.21,10.74-7.96,20.16-14.24,28.25-6.29,8.1-14.05,14.52-23.28,19.27-9.24,4.75-12.91,4.34-25.23,4.34s-18.79.33-28.03-4.42c-9.24-4.75-17.09-8.01-23.38-16.11-6.29-8.1-11.04-17.51-14.24-28.25-3.21-10.73-4.81-22.26-4.81-34.59v-122.44c0-12.32,1.6-32.48,4.81-43.22,3.2-10.74,7.95-20.15,14.24-28.25,6.28-8.1,8.2-12.23,18.11-19.18,8.81-6.18,20.61-10.3,32.93-10.3Zm.37,246.72c2.82,0,5.71-.97,8.66-2.91,2.95-1.93,4.43-5.89,4.43-11.88v-154.31c0-5.98-1.48-9.94-4.43-11.88-2.95-1.93-5.84-2.91-8.66-2.91s-5.71.97-8.66,2.91c-2.95,1.94-4.43,5.9-4.43,11.88v154.31c0,5.99,1.47,9.95,4.43,11.88,2.95,1.94,5.83,2.91,8.66,2.91Zm148.44-246.72c-65.77,0-65.77,50.76-65.77,50.76v45.1h49.73v-24.21s-.7-20.39,14.29-20.39,16.47,23.5,16.47,23.5v6.97c0,9.21-4.21,17.34-10.38,20.03-21.75,9.5-72.1,36.83-72.1,66.9,0,38.8-.57,66.14-.57,66.14,0,0-3.02,71.97,52.64,71.13,27.77.84,30.41-21.39,30.41-21.39v21.39h56.62v-254.68s-5.58-51.26-71.34-51.26Zm16.92,245.46c0,5.83-2.04,11.28-5.44,14.52l-3.19,3.04c-4.11,3.92-9.47,3.92-13.58,0l-3.19-3.04c-3.4-3.24-5.44-8.69-5.44-14.52v-52.47c0-6.02,1.67-11.78,4.65-16.04l22.15-31.67c1.49-2.14,4.05-.63,4.05,2.39v97.79Z"/>
      <rect class="cls-1" x="343.48" y="437" width="305.36" height="45.98"/>
      <rect class="cls-1" x="732.6" y="437" width="1128.3" height="45.98"/>
      <polygon class="cls-1" points="1.16 167.99 86.68 290.03 262.68 107.86 170.96 1.3 1.16 167.99"/>
      <polygon class="cls-1" points="17.12 363.21 120.77 509.78 308.4 294.77 201.95 171.09 17.12 363.21"/>
    </g>
  </g>
</svg>