<?xml version="1.0" encoding="UTF-8"?>
<svg id="Layer_2" data-name="Layer 2" xmlns="http://www.w3.org/2000/svg" viewBox="0 0 303.74 195.06">
  <defs>
    <style>
      .cls-1 {
        fill: none;
        stroke: #ffad05;
        stroke-linecap: round;
        stroke-linejoin: round;
        stroke-width: 1.78px;
      }

      .cls-2 {
        fill: #ffad05;
      }
    </style>
  </defs>
  <g id="Layer_1-2" data-name="Layer 1">
    <g>
      <g>
        <path class="cls-2" d="m234.22,49.13c1.58,1.77,3.17,3.52,4.72,5.31,19.53,22.55,39.06,45.1,58.59,67.65.42.49.72,1.11,1.21,1.5,4.49,3.57,5.08,8.31,4.99,13.74-.27,17.13-.1,34.26-.1,51.39,0,1.1,0,2.2,0,3.3-.25.12-.5.24-.74.37-20.71-21.98-41.42-43.95-62.34-66.15-.39.73-.68,1.04-.7,1.37-.95,15.54-9.08,27.15-20.41,36.91-12.34,10.64-26.83,17.27-42.22,22.12-22.6,7.11-45.81,9.32-69.36,8.1-18.89-.98-37.34-4.43-55.07-11.26-13.02-5.02-25.1-11.64-35.34-21.22-9.24-8.64-15.64-18.92-17.24-31.75-.11-.88-.2-1.76-.21-2.64-.01-15.36-.01-30.72,0-46.09,0-.77.09-1.54.42-2.33.96,2.92,1.75,5.9,2.9,8.74,4.14,10.21,11.37,17.98,19.84,24.72,11.74,9.35,25.23,15.29,39.43,19.69,21.72,6.73,44.05,9.3,66.68,8.1,16.38-.87,32.63-3.25,48.34-8.33,13.3-4.3,26.05-9.85,37.29-18.28,10.26-7.7,18.64-17.01,22.85-29.43,2.98-8.82,2.87-17.69-.3-26.47-1.08-2.98-2.3-5.9-3.46-8.84.08-.07.15-.14.23-.22Z"/>
        <path class="cls-2" d="m119.36,135.41c-16.76-.25-33.22-2.41-49.27-7.12-14.19-4.17-27.62-10.1-39.17-19.58-9.75-8-17.18-17.63-19.51-30.36-1.55-8.48-.01-16.6,3.79-24.34,5.4-10.99,14.18-18.71,24.19-25.26,11.08-7.25,23.3-11.76,36.02-15.15,13.19-3.52,26.6-5.45,40.21-5.4,10.09.04,20.26.29,30.24,1.62,18.43,2.45,36.14,7.63,52.24,17.32,8.81,5.3,16.67,11.75,22.73,20.18,5.21,7.25,8.16,15.39,8.24,24.28.09,9.93-3.78,18.67-9.87,26.35-8.85,11.17-20.5,18.61-33.39,24.28-15.22,6.69-31.21,10.36-47.72,11.91-6.23.58-12.49.86-18.74,1.28Zm.09-2.13c3.37-.19,6.74-.42,10.11-.56,14.93-.6,29.46-3.26,43.7-7.9,10.48-3.41,20.32-7.96,29.39-14.19,8.59-5.9,15.91-13.01,20.54-22.54,3.05-6.29,4.29-12.98,3.67-19.9-1.21-13.61-9.05-23.45-19-31.83-8.43-7.11-18.16-12.15-28.39-16.11-15.72-6.09-32.16-9.12-48.93-10.02-17.49-.95-34.86.28-51.93,4.55-17.64,4.41-34.23,11.06-48.17,23.15-8.97,7.78-15.64,16.98-17.14,29.2-.87,7.11.11,13.93,3.02,20.47,4.12,9.26,11.07,16.12,19.06,21.97,11.69,8.57,24.82,14.14,38.76,17.83,14.84,3.94,29.96,5.78,45.33,5.88Z"/>
        <path class="cls-2" d="m120.89,14.34c12.77-.5,26.12,1.39,39.25,4.72,13.65,3.46,26.59,8.76,37.9,17.33,8.99,6.82,16.38,15.07,19.24,26.35,2.23,8.79,1.2,17.38-3.05,25.49-6.11,11.66-16.01,19.29-27.27,25.41-12.19,6.64-25.32,10.65-38.93,12.93-17.7,2.96-35.47,3.21-53.29.55-14.99-2.24-29.32-6.45-42.68-13.63-9.15-4.92-17.28-11.18-23.26-19.84-9.91-14.35-9.9-28.53-.43-43.18,5.18-8.02,12.58-13.64,20.54-18.6,10.27-6.39,21.48-10.39,33.19-13.27,12.48-3.07,25.1-4.5,38.78-4.24Zm-.14,113.01c7.07-.68,15.8-1.3,24.47-2.41,13.72-1.77,26.86-5.68,39.16-12.08,11.71-6.09,22.21-13.64,28.32-25.89,5.02-10.06,5.17-20.28.31-30.38-5.1-10.61-13.76-17.85-23.69-23.68-10.18-5.98-21.05-10.34-32.62-12.77-6.04-1.27-12.12-2.68-18.25-3.1-9.27-.65-18.6-.61-27.9-.65-10.03-.05-19.84,1.93-29.5,4.32-10.55,2.61-20.71,6.38-30.09,12.02-9.49,5.7-17.9,12.49-23.24,22.49-5.87,11-5.83,22.05-.07,32.99,4.94,9.38,12.72,16.08,21.63,21.49,15.03,9.12,31.62,13.69,48.86,16.02,6.91.93,13.93,1.03,22.61,1.63Z"/>
        <path class="cls-2" d="m122.75,120.61c-13.8,0-25.04-1.14-36.09-3.88-12.43-3.09-24.09-7.93-34.37-15.74-6.48-4.92-11.53-11.01-14.42-18.62-3.38-8.92-2.53-17.65,2.21-25.98,6.07-10.66,15.54-17.37,26.28-22.54,16.36-7.88,33.73-11.07,51.8-11.32,11.49-.16,22.81.96,33.94,3.61,12.61,3,24.5,7.8,34.93,15.69,6.24,4.72,11.4,10.44,14.44,17.74,3.95,9.52,3.18,18.78-1.97,27.74-5.2,9.05-13.13,15.09-22.03,19.99-8.78,4.84-18.22,7.88-28,10.07-9.62,2.15-19.35,2.99-26.73,3.23Zm-4.74-1.9c14.99.04,28.07-1.52,40.86-5.57,12.59-3.98,24.22-9.53,33.52-19.17,11.55-11.97,13.73-28.06,2.52-42.1-6.99-8.76-16.39-14.3-26.57-18.61-11.12-4.71-22.77-7.19-34.77-8.32-13.61-1.28-27.16-.87-40.53,1.81-13.06,2.62-25.58,6.97-36.62,14.75-6.58,4.63-12.44,10.01-15.82,17.49-3.48,7.7-4.17,15.55-.86,23.6,3.28,7.97,9.04,13.8,15.82,18.7,8.9,6.44,18.95,10.5,29.51,13.23,11.32,2.92,22.85,4.55,32.94,4.18Z"/>
        <path class="cls-2" d="m114.95,112.51c-16.11-.24-31.38-3.78-45.43-11.81-7.38-4.21-13.61-9.74-17.55-17.42-3.57-6.96-3.83-14.1-.78-21.4,3.38-8.08,9.49-13.6,16.62-18.2,9.61-6.2,20.26-9.46,31.41-11.61,11.34-2.18,22.73-2.39,34.08-1.14,15.35,1.68,29.93,5.99,42.61,15.28,5.72,4.19,10.43,9.27,12.95,16.08,3.46,9.31,1.83,17.8-4.03,25.65-6.37,8.54-15.16,13.69-24.78,17.65-12.36,5.08-25.34,6.92-38.6,7.15-1.12.02-2.24-.18-3.37-.22-1.04-.04-2.09,0-3.14,0Zm5.29-1.13c13.12-.35,26.19-2.18,38.67-7.06,7.82-3.06,15.22-6.99,21.16-13.08,5.42-5.55,9.16-11.98,9.01-20.09-.14-7.22-3.15-13.24-8.08-18.28-11.48-11.75-26.21-16.8-41.86-19.5-10.96-1.89-22.02-2.15-33.13-.7-14.21,1.85-27.7,5.6-39.65,13.79-5.44,3.72-10.23,8.22-12.96,14.3-4.71,10.5-2.71,20.49,4.83,29.05,4.6,5.22,10.31,8.9,16.49,11.93,14.3,7.01,29.62,9.23,45.53,9.64Z"/>
        <path class="cls-2" d="m117.78,49.88c12.77.25,22.99,2.04,31.74,8.58,2.26,1.69,4.31,3.94,5.78,6.35,3.72,6.1,1.99,13.21-4.14,18.5-6.18,5.34-13.63,7.86-21.5,9.04-10.32,1.54-20.54.94-30.4-2.8-5.01-1.9-9.59-4.5-13.08-8.74-4.57-5.56-4.71-12.53-.18-18.14,5.28-6.55,12.62-9.52,20.53-11.21,4.38-.94,8.89-1.26,11.25-1.57Z"/>
      </g>
      <path class="cls-1" d="m1.01,81.27C-.08,44.73,27.65,19.48,59.79,9.54c23.55-7.28,122.38-28.14,174.89,41.53"/>
    </g>
  </g>
</svg>