<?xml version="1.0" encoding="UTF-8"?>
<svg id="Layer_2" data-name="Layer 2" xmlns="http://www.w3.org/2000/svg" viewBox="0 0 1416.94 569.83">
  <defs>
    <style>
      .cls-1 {
        fill: #1e1e1e;
      }
    </style>
  </defs>
  <g id="Layer_1-2" data-name="Layer 1">
    <g>
      <path id="path912" class="cls-1" d="m315.22,0v193.15h1094.98V0H315.22h0ZM0,312.01v257.82h214.83v-48.07h-113.69v-55.93h113.69v-49.38h-114.19v-56.37h114.19v-48.07H0Z"/>
      <path id="path924" class="cls-1" d="m354.2,312.01c-24.88,0-44.92,35.24-44.92,78.66v179.16h195s.25-34.49.25-38.02-1.44-5.17-3.01-5.24c-1.53-.1-127.74,0-127.74,0v-63.8h110.93v-37.58c0-3.23-1.17-5.24-3.01-5.24h-107.92v-65.11h130.5v-38.45c0-3.46-1.18-4.37-2.76-4.37h-147.32,0Zm221.61,0c-24.83,0-44.92,35.24-44.92,78.66v179.16h196.76v-144.64c0-2.73-1.5-5.24-3.01-5.24-1.36,0-69.29.44-85.83.44-1.91,0-3.01,2.22-3.01,4.81v37.58h66.26v59.87h-106.91v-168.24h132.51v-38.02c0-3.27-1.16-4.37-3.01-4.37h-148.82Zm226.37,0c-24.83,0-44.92,35.22-44.92,78.66v179.16h196.76v-144.64c0-2.73-1.26-5.24-2.76-5.24-1.37,0-69.28.44-85.83.44-1.9,0-2.76,2.2-2.76,4.81s-.25,37.58-.25,37.58h66.26v59.87h-106.91v-168.24h132.26v-38.02c0-3.27-.92-4.37-2.76-4.37h-149.08Zm226.88,0c-24.87,0-44.92,35.24-44.92,78.66v179.16h195v-38.02c0-3.48-1.19-5.17-2.76-5.24-1.54-.1-127.74,0-127.74,0v-63.8h110.68v-37.58c0-3.23-.92-5.24-2.76-5.24h-107.92v-65.11h130.5v-38.45c0-3.44-1.45-4.37-3.01-4.37h-147.07,0Zm221.1,0c-24.82,0-44.67,35.22-44.67,78.66v179.16h64.25v-107.06s68.6,102.39,66.26,99.63c2.97,4.16,4.35,7.53,7.28,7.43h70.52c6.94,0,.25-9.18.25-9.18l-66.26-97.88h17.57c21.49,0,38.9-38.05,38.9-75.6s-17.21-75.16-38.65-75.16h-115.45,0Zm19.58,42.82h86.84c7.44,0,16.81,10.1,16.81,32.77,0,20.47-9.95,32.77-16.81,32.77h-86.84v-65.55Z"/>
    </g>
  </g>
</svg>