<?xml version="1.0" encoding="UTF-8"?>
<svg id="Layer_2" data-name="Layer 2" xmlns="http://www.w3.org/2000/svg" viewBox="0 0 353.83 328.12">
  <defs>
    <style>
      .cls-1 {
        fill: #ffad05;
      }

      .cls-2 {
        fill: #af7000;
      }
    </style>
  </defs>
  <g id="Layer_1-2" data-name="Layer 1">
    <g>
      <g>
        <path class="cls-2" d="m178.49,246.77c.28-1.53.29-2.49-.78-3.37-4.17-3.45-8.26-7.06-12.4-10.57-7.23-6.13-14.49-12.21-21.71-18.36-6.36-5.42-12.64-10.98-19.03-16.33-5.68-4.76-11.38-9.53-17.23-13.95-8.85-6.69-17.17-14.28-25.21-22.41-6.75-6.83-13.45-13.73-20.24-20.5-1.71-1.71-3.68-3.02-5.49-4.58-.71-.62-1.31-1.44-2.15-2.38,1.7-.93,2.68.05,3.62.95,4.4,4.23,8.75,8.54,13.17,12.74,4.18,3.98,8.39,7.91,12.64,11.75,3.86,3.48,7.82,6.77,11.7,10.21,4.78,4.25,9.61,8.43,14.27,12.89,6.32,6.06,12.9,11.59,19.73,16.65,3.99,2.96,8.01,5.84,11.95,8.91,3.21,2.5,6.3,5.25,9.47,7.84,1.43,1.16,2.94,2.17,4.39,3.3,4.82,3.74,9.63,7.51,14.45,11.25,2.28,1.77,4.57,3.52,6.89,5.21.62.45,1.48,1.41,1.98-.08.4-1.19.3-2.46-.76-3.22-.58-.41-1.22-.72-1.78-1.16-3.21-2.49-6.4-5.03-9.62-7.52-10.18-7.87-20.42-15.62-30.54-23.61-9.35-7.38-18.62-14.92-27.83-22.57-6.1-5.07-12.06-10.4-18.05-15.69-5.94-5.24-11.84-10.55-17.72-15.88-2.42-2.19-4.79-4.49-7.13-6.82-.61-.6-1.02-1.51-1.33-2.64,27.07,9.47,53.99,19.07,80.65,29.87.09-.31.18-.61.27-.92-7.19-3.81-14.53-7.19-21.74-10.93l.13-.68c.43,0,.89-.12,1.29.02,2,.67,4.04,1.21,5.95,2.17,10.96,5.47,22.27,9.47,33.71,12.91,8.29,2.49,16.59,4.98,24.91,7.33,7.19,2.03,14.45,3.67,21.61,5.82,5.74,1.72,11.38,3.99,17.07,5.96,1.76.61,3.56,1.01,5.34,1.55,1.01.31,1.32-.27,1.36-1.43.07-1.92-.65-3.12-2.08-3.54-3.08-.91-6.18-1.71-9.26-2.62-6.81-1.99-13.6-4.12-20.44-6-3.44-.94-6.98-1.31-10.44-2.18-9.73-2.45-19.52-4.68-29.15-7.65-7.84-2.42-15.83-4.27-23.36-8.26-7.57-4.02-15.25-7.72-22.91-11.5-2.95-1.45-5.92-2.87-8.95-4.01-1.53-.57-3.54.17-4.75-.83-1.3-1.08-2.56-2.11-4.01-2.89-4.54-2.44-9.07-4.92-13.5-7.64-6.06-3.73-12.39-6.52-18.87-8.64-8.54-2.79-17.19-5.06-25.79-7.61-2.78-.83-5.51-1.96-8.3-2.75-7.18-2.03-14.39-3.9-21.58-5.92-3.09-.87-6.15-1.9-9.22-2.93-1.69-.57-1.92-1.32-1.18-3.86,4.46,1.26,8.95,2.54,13.45,3.79,3.57.99,7.19,1.73,10.71,2.94,6.8,2.34,13.79,3.57,20.5,6.52,6.43,2.83,13.12,4.68,19.67,7.06,3.75,1.36,7.48,2.81,11.16,4.43,6.67,2.92,13.29,6.04,19.96,9,7.69,3.41,15.42,6.63,23.09,10.11,5.73,2.6,11.31,5.72,17.07,8.2,7.26,3.13,14.55,6.25,21.97,8.65,11.85,3.83,23.83,7.06,35.75,10.56,8.42,2.47,16.84,4.9,25.24,7.49,4.31,1.33,8.57,2.98,12.85,4.44.83.28,1.84.92,2.27-.78.41-1.63-.19-3.08-1.57-3.51-7.5-2.33-14.98-4.75-22.52-6.88-7.72-2.18-15.51-3.94-23.24-6.08-7.78-2.16-15.56-4.34-23.26-6.91-5.41-1.81-10.71-4.16-16-6.49-5.4-2.38-10.84-4.47-16.42-6.1-4.01-1.17-7.9-3.01-11.83-4.57-2.54-1.01-5.1-2.01-7.61-3.13-1.39-.62-2.84-1.21-3.82-2.73.03-.19.07-.38.1-.57.47.03.96-.03,1.42.11,4.73,1.48,9.45,3.02,14.18,4.48.75.23,1.56.11,2.34.16.03-.25.06-.49.1-.74-.47-.23-.94-.48-1.41-.68-4.5-1.89-9.01-3.71-13.49-5.67-5.41-2.36-10.83-4.74-16.19-7.28-3.25-1.54-6.34-3.59-9.61-5.06-5.1-2.29-10.28-4.3-15.43-6.4-6.61-2.68-13.23-5.29-19.83-8.01-5.61-2.3-11.13-4.94-16.79-7-5.14-1.87-10.39-3.2-15.61-4.68-4.99-1.42-10-2.7-14.99-4.13-.74-.21-1.44-.79-2.08-1.34-.21-.18-.31-.9-.19-1.22.11-.3.57-.41.88-.56.1-.05.24.02.36.06,4.93,1.32,9.89,2.53,14.8,4.01,6.51,1.96,13,4.02,19.46,6.24,5.64,1.94,11.24,4.06,16.81,6.26,9.76,3.85,19.46,7.93,29.23,11.71,5.11,1.98,10.35,3.45,15.49,5.33,5.43,1.98,10.81,4.2,16.22,6.28,11.36,4.38,22.7,8.83,34.09,13.06,8.35,3.1,16.77,5.85,25.14,8.84,8.02,2.86,16.01,5.91,24.04,8.73,7.39,2.6,14.82,5.02,22.23,7.52.34.12.68.27,1,.8-.78,0-1.59.18-2.33-.03-5.11-1.42-10.18-3.1-15.31-4.35-4.12-1-8.32-1.44-12.47-2.25-4.93-.97-9.89-1.78-14.75-3.19-9.43-2.74-18.81-5.8-28.19-8.83-2.89-.93-5.71-2.2-8.56-3.32-.73-.29-1.47-.56-2.2-.84l-.29.55c.38.47.7,1.13,1.15,1.37,1.79.94,3.61,1.78,5.44,2.57,1.15.49,2.33.84,3.51,1.23,5.7,1.88,11.39,3.8,17.11,5.6,8.26,2.6,16.55,5.08,24.82,7.66,4.61,1.44,9.19,3.03,13.8,4.44,8.28,2.53,16.58,4.94,24.86,7.46,1.89.58,3.71,1.52,5.6,2.08,1.56.47,1.87.1,1.89-1.91.02-2.54-.02-5.09-.09-7.63-.05-1.51.38-2.47,1.55-2.98,2.13-.92,4.23-1.92,6.34-2.91,4.22-1.97,8.44-3.97,12.67-5.9,3.49-1.6,7.01-3.1,10.51-4.67,4.36-1.96,8.7-3.99,13.06-5.92,4.71-2.08,9.46-4,14.15-6.15,4.8-2.2,9.52-4.66,14.31-6.86,1.85-.85,3.82-1.29,5.82-1.94.11.58.24.94.24,1.3-.01,10.87-.05,21.74-.04,32.61,0,1.49-.47,2.17-1.56,2.64-3.97,1.72-7.91,3.56-11.86,5.36-.32.15-.61.38-1.16.73,2.72,1.96,5.82,2,8.5,4.63-1.25.47-2.15.77-3.03,1.14-4.27,1.78-8.53,3.6-12.81,5.37-7.23,3-14.47,5.94-21.68,8.98-5.54,2.33-11.04,4.84-16.59,7.14-3.64,1.51-7.34,2.77-11.01,4.19-1.4.54-2.79,1.13-4.14,1.82-1.7.87-3.4,1.07-5.18.43-8.59-3.1-17.21-6.12-25.79-9.26-7.84-2.87-15.64-5.9-23.48-8.77-8.01-2.93-16.06-5.69-24.06-8.66-7.13-2.64-14.2-5.54-21.32-8.2-7.36-2.74-14.77-5.24-22.13-7.98-10.05-3.73-20.09-7.51-30.09-11.43-1.7-.67-3.22-2.13-4.81-3.25-1.4-.99-2.78-2.02-4.17-3.03-.11.14-.22.28-.32.42.28.49.5,1.08.85,1.46,3.17,3.36,6.21,6.97,9.58,9.97,6.67,5.94,13.46,11.67,20.32,17.24,4.24,3.44,8.75,6.35,13.06,9.66,11.66,8.95,23.27,18.02,34.93,26.97,6.81,5.23,13.7,10.31,20.55,15.48.52.39.98.91,1.48,1.35,1.14,1,1.87.73,2.02-1.03.15-1.79.89-2.17,2.12-2.47,4.96-1.18,9.91-2.52,14.85-3.81,7.4-1.93,14.79-3.88,22.18-5.82,5.48-1.44,10.97-2.87,16.45-4.33,13.35-3.54,26.7-7.07,40.04-10.62,13.77-3.66,27.53-7.33,41.3-11.02,3.46-.93,6.89-1.96,10.35-2.89,1.76-.47,1.94-.24,1.94,1.96,0,10.03.01,20.05.01,30.08,0,3.47-.05,3.53-2.68,4.22-7.63,1.99-15.26,3.96-22.88,5.98-.54.14-1.01.71-1.51,1.08.34.56.62,1.2,1.03,1.67.82.96,1.7,1.83,2.56,2.73-.05.23-.09.46-.14.7-3.24.86-6.49,1.74-9.73,2.57-4.36,1.12-8.71,2.21-13.08,3.28-2.51.61-5.03,1.16-7.54,1.73-4.49,1.01-8.99,1.96-13.47,3.05-3.63.88-7.22,2.01-10.84,2.91-4.95,1.23-9.93,2.29-14.88,3.53-4.47,1.12-8.91,2.45-13.39,3.56-7.05,1.74-14.12,3.33-21.17,5.07-4.18,1.03-8.34,2.25-12.52,3.3-3.28.83-6.57,1.62-9.88,2.22-.81.15-1.83-.33-2.56-.91-2.32-1.85-4.53-3.9-6.8-5.84-5.49-4.7-10.99-9.38-16.48-14.07-9.89-8.43-19.76-16.9-29.68-25.29-4.15-3.51-8.4-6.81-12.59-10.25-4.64-3.82-9.25-7.7-13.89-11.53-3.56-2.95-7.19-5.78-10.71-8.81-2.71-2.34-5.31-4.89-7.96-7.35-.2-.18-.38-.42-.6-.52-3.4-1.56-4.83-5.44-6.46-8.98-2.53-5.5-5.19-10.79-9.85-13.83-.16-.1-.31-.26-.42-.44-2.88-4.63-6.78-7.87-10.13-11.86-3.93-4.69-7.97-9.23-11.94-13.87-.44-.51-.74-1.22-1.1-1.83.1-.19.21-.38.31-.57.46.18,1,.22,1.36.57,2.84,2.76,5.68,5.54,8.47,8.38,5.11,5.21,10.19,10.47,15.29,15.71,3.07,3.15,6.05,6.46,9.22,9.43,3.66,3.44,7.5,6.57,11.25,9.86,5,4.39,9.98,8.81,14.97,13.22,2.44,2.16,4.86,4.35,7.32,6.47.82.71,1.73,1.26,2.73,1.65-.6-2.13-2.09-3.07-3.34-4.25-6.94-6.5-13.99-12.82-20.86-19.43-5.08-4.89-9.97-10.11-14.91-15.23-2.2-2.28-4.27-4.78-6.5-7-2.67-2.66-5.45-5.13-8.19-7.68-3.09-2.87-6.18-5.73-9.29-8.57-.74-.68-1.57-1.2-2.3-1.88-.5-.46-.92-1.06-1.27-1.8,1.55-.4,2.72.53,3.84,1.49,1.36,1.16,2.58,2.59,3.98,3.66,6.16,4.72,11.61,10.63,17.19,16.34,7.66,7.85,15.33,15.7,23.2,23.19,7.34,6.98,14.88,13.66,22.5,20.15,4.54,3.86,9.43,7.05,14.13,10.61,2.03,1.54,4.01,3.19,5.97,4.87,6.11,5.21,12.19,10.46,18.29,15.68,2.77,2.37,5.52,4.79,8.36,7.02,5.62,4.42,11.29,8.74,16.95,13.08.92.71,1.9,1.29,2.98,2.01Zm-20.74-76.18c-.05.21-.09.42-.14.63.47.31.92.73,1.42.9,1.05.36,2.15.52,3.2.9,3.97,1.42,7.93,2.9,11.9,4.33,5.91,2.12,11.84,4.13,17.73,6.35,6.82,2.58,13.59,5.38,20.4,7.99,5.94,2.27,11.93,4.34,17.86,6.63,4.18,1.61,4.19,1.63,4.15-3.97-.01-1.9-.54-2.7-2-3.09-5.18-1.38-10.31-3-15.49-4.38-7.2-1.91-14.42-3.64-21.62-5.53-4.53-1.19-9.04-2.46-13.54-3.8-3.49-1.04-6.96-2.19-10.42-3.4-3.9-1.36-7.97-1.8-11.8-3.54-.49-.22-1.09-.03-1.64-.03Zm-21.52,52.12c-.15.19-.29.39-.44.58.28.52.46,1.19.84,1.53,5.17,4.6,10.35,9.18,15.56,13.7,6.06,5.26,12.16,10.45,18.23,15.69,2.11,1.82,4.15,3.77,6.29,5.52.43.35,1.18.08,1.78.09-.17-.75-.28-1.53-.55-2.22-.14-.37-.54-.6-.85-.84-2.53-1.99-5.09-3.9-7.58-5.96-4.22-3.5-8.39-7.07-12.57-10.65-5.84-5-11.67-10.05-17.51-15.05-1.02-.88-2.13-1.6-3.2-2.39Zm-2.71-.72c.1-.13.19-.26.29-.38-.83-2.08-1.9-3.09-3.46-2.88,1.18,1.22,2.18,2.24,3.17,3.26Zm-22.64-24.68c.12-.2.25-.41.37-.61-.4-.38-.8-.77-1.2-1.15-.11.19-.23.37-.34.56.39.4.78.8,1.17,1.2Z"/>
        <path class="cls-2" d="m60.42,181.15c.45.66.95,1.27,1.33,1.99,1.95,3.72,3.74,7.59,5.84,11.17,2.61,4.45,5.45,8.67,8.22,12.97.26.4.72.59,1.09.88.17-.17.34-.34.51-.51-.62-1.39-1.15-2.86-1.87-4.17-2.87-5.25-5.58-10.67-8.77-15.6-2.26-3.48-3.99-7.33-5.94-11.02-1.65-3.13-3.31-6.25-4.89-9.44-.33-.67-.34-1.61-.59-2.9,4.17,6.38,8.13,12.17,11.83,18.22,2.67,4.37,5,9.07,7.44,13.67,2.44,4.6,4.93,9.16,7.21,13.89,2.28,4.73,4.22,9.72,6.48,14.46,3.14,6.59,6.45,13.05,9.64,19.6.67,1.37,1.05,2.95,1.71,4.33.3.63.96.99,1.45,1.48.13-.75.52-1.64.33-2.21-.73-2.18-1.62-4.27-2.49-6.37-1.27-3.06-2.62-6.07-3.86-9.15-4.14-10.31-8.86-20.16-14.26-29.5-2.4-4.15-4.41-8.66-6.71-12.92-2.19-4.07-4.59-7.95-6.76-12.03-3.81-7.15-7.52-14.38-11.23-21.61-.37-.71-.48-1.63-.71-2.45.15-.11.3-.22.46-.34.96,1.57,2,3.08,2.85,4.73,1.42,2.77,2.65,5.7,4.1,8.45.8,1.53,1.91,2.79,2.84,4.21,3.05,4.68,6.29,9.2,9.07,14.13,3.6,6.39,7.03,12.97,10.16,19.74,6.27,13.57,12.29,27.31,18.4,41,2.88,6.44,5.73,12.9,8.59,19.36,2.51,5.66,4.44,11.62,5.93,17.84.67,2.77,1.83,5.35,2.82,7.99.13.35.51.56.77.84.17-.03.34-.07.51-.1,0-1.15.09-2.31-.02-3.44-.29-3.1-.17-3.44,2.29-3.9,4.64-.86,9.29-1.66,13.94-2.43,7.06-1.18,14.13-2.3,21.19-3.48,15.45-2.58,30.9-5.17,46.35-7.79,11.65-1.97,23.29-4,34.93-6,13.76-2.35,27.52-4.64,41.27-7.06,9.34-1.64,18.66-3.54,28.01-5.18,3.49-.61,7.03-.89,10.55-1.21,1.95-.18,2.14.07,2.13,2.5,0,6.48-.06,12.95-.08,19.43,0,3.16.01,6.32.05,9.48.02,1.6-.4,2.14-1.79,2.3-3.38.4-6.73,1.26-10.1,1.89-9.87,1.84-19.75,3.63-29.61,5.49-9.39,1.77-18.77,3.64-28.16,5.41-8.79,1.65-17.6,3.13-26.38,4.83-10.46,2.02-20.9,4.25-31.36,6.29-8.48,1.66-16.97,3.18-25.46,4.77-13.84,2.58-27.68,5.17-41.53,7.74-.66.12-1.34.08-2,.17-1.06.16-1.6-.46-2.12-1.64-3.25-7.32-6.68-14.51-9.84-21.89-2.23-5.19-4.09-10.63-6.21-15.9-1.82-4.52-3.77-8.96-5.67-13.44-.63-1.49-1.34-2.93-1.89-4.47-2.49-7.04-5.54-13.67-8.92-20.09-2.02-3.84-3.73-7.93-5.7-11.81-1.35-2.65-2.93-5.1-4.37-7.67-1.78-3.19-3.64-6.33-5.27-9.64-5.19-10.57-10.28-21.22-15.4-31.84-.27-.55-.44-1.17-.65-1.76.11-.1.22-.19.34-.29Zm62.17,122.44l.7-.31c-.4-2.12-.59-4.35-1.26-6.33-.87-2.61-2.08-5.05-3.2-7.53-2.44-5.42-5.02-10.75-7.32-16.26-1.7-4.07-3.03-8.39-4.57-12.57-.33-.89-.78-1.76-1.31-2.46-.35-.46-.96-.6-1.45-.89.03.64-.03,1.3.09,1.91.23,1.1,1.05,2.1.21,3.79-2.54-3.56-3.68-7.92-5.6-11.64-1.92-3.71-3.63-7.59-5.44-11.4-.23.14-.46.27-.69.41.26.84.43,1.75.78,2.52,1.67,3.66,3.46,7.24,5.06,10.95,1.43,3.31,2.65,6.76,3.99,10.13,3.7,9.26,7.36,18.56,11.15,27.76,2.52,6.13,5.25,12.12,7.9,18.16.19.44.52.8.83,1.27,1.29-1.51.71-2.81.02-4.15-.48-.95-.9-1.95-1.31-2.95-.28-.68-.47-1.41-.75-2.09-1.09-2.65-2.21-5.28-3.28-7.96-.15-.37-.02-.93-.02-1.4.11-.05.22-.09.33-.14,1.7,3.73,3.41,7.45,5.11,11.18Zm-31.38-65.9c.18-.91.38-1.31.3-1.58-.54-1.71-.98-3.5-1.75-5.04-1.48-2.98-3.24-5.74-4.72-8.73-1.86-3.76-3.54-7.66-5.31-11.49-.1-.22-.37-.33-.69-.61-.9,1.59-.27,2.83.31,4.04,3.4,7,6.8,13.99,10.22,20.96.38.77.93,1.41,1.63,2.45Z"/>
        <path class="cls-2" d="m.52,107.25c.34-.04.7-.2,1.01-.1,8.69,2.62,17.37,5.35,26.08,7.89,4.56,1.33,9.23,2.09,13.77,3.55,5.48,1.76,10.88,3.94,16.3,6,4.6,1.75,9.2,3.53,13.76,5.43,5.08,2.11,10.12,4.38,15.18,6.58.86.38,1.72.8,2.59,1.13,3.14,1.19,6.29,2.35,9.44,3.53,1.13.42,2.25.86,3.51,1.34-.74,2.12-1.86,1.91-2.89,1.52-4.42-1.7-8.8-3.54-13.22-5.19-7.35-2.74-14.71-5.45-22.1-8.05-8.03-2.83-16.1-5.46-24.13-8.28-4.1-1.44-8.15-3.11-12.24-4.62-2.22-.82-4.47-1.5-6.7-2.26-6.34-2.17-12.69-4.33-19.02-6.56-.56-.2-1.03-.83-1.54-1.26.07-.21.14-.43.21-.64Z"/>
        <path class="cls-2" d="m79.34,122.58c-1.14-.39-2.24-.52-3.16-1.11-4.67-3-9.79-4.15-14.78-5.83-4.94-1.67-9.93-3.12-14.89-4.69-8.98-2.82-17.94-5.69-26.93-8.45-2.89-.89-5.84-1.45-8.76-2.25-3.15-.86-6.28-1.79-9.42-2.72-1.25-.37-1.65-1.8-1.27-4.2.25-1.58,1.16-1.12,1.87-.89,5.37,1.69,10.73,3.44,16.1,5.15,1.65.53,3.31,1,4.95,1.53,2.48.8,4.96,1.59,7.42,2.45,5.63,1.97,11.26,3.93,16.86,6.01,6.48,2.4,12.95,4.87,19.39,7.42,3.65,1.45,7.25,3.11,10.85,4.72.86.39,1.92.7,1.76,2.85Z"/>
      </g>
      <path d="m232.93,1.22c-.61.06-1.23.12-2.07.19.7-1.78,1.35-1.67,2.09-.79,0,.2-.02.4-.02.6Z"/>
      <polygon class="cls-1" points="1.32 87.07 64.65 56.45 312.6 129.19 235.73 163.53 1.32 87.07"/>
      <polygon class="cls-1" points="306.72 176.45 328.15 184.88 178.49 223.96 74.01 144.36 234.28 207.14 306.72 176.45"/>
      <polygon class="cls-1" points="304.67 233.23 321.96 251.38 124.18 284.45 70.71 176.11 178.03 265.15 304.67 233.23"/>
    </g>
  </g>
</svg>