<?xml version="1.0" encoding="UTF-8"?>
<svg id="Layer_2" data-name="Layer 2" xmlns="http://www.w3.org/2000/svg" viewBox="0 0 915.25 174.19">
  <defs>
    <style>
      .cls-1 {
        fill: #1e1e1e;
      }
    </style>
  </defs>
  <g id="Layer_1-2" data-name="Layer 1">
    <g>
      <path class="cls-1" d="m85.8.36c-2.49-.52-5.19-.74-8.04,1.2-8.4,5.74-16.97,11.55-25.45,17.27-.73.49-1.17,1.36-1.17,2.31v150.02c0,.64.2,1.26.57,1.75.47.62,1.18.98,1.94.98.14,0,.29-.01.43-.04,4.6-.83,5.79-1.33,6.35-1.7,8.71-5.79,17.54-11.78,26.24-17.79.72-.49,1.15-1.36,1.15-2.31V3.04c0-1.34-.84-2.44-2.03-2.68Z"/>
      <path class="cls-1" d="m136.46,19.21c-3.05-.38-5.46,0-7.15,1.14-9.04,6.1-17.76,12.06-25.95,17.73-.7.5-1.11,1.36-1.11,2.29l.03,130.92c0,1.36.89,2.49,2.11,2.69.82.14,1.65.21,2.47.21.29,0,.58,0,.87-.03,1.33-.09,2.75-.63,4.22-1.6,8.51-5.64,17.12-11.5,25.59-17.4.71-.49,1.13-1.34,1.13-2.29V21.92c0-1.4-.93-2.54-2.2-2.71Z"/>
      <path class="cls-1" d="m655.93,19.71c-.35-.31-.82-.49-1.28-.48l-28.54.07c-1.08,0-1.93.86-1.92,1.96l.18,138.35c0,.57.24,1.11.66,1.48.35.31.8.48,1.27.48h0l28.54-.07c1.08,0,1.92-.86,1.92-1.96l-.18-138.35c0-.57-.24-1.11-.66-1.48Z"/>
      <path class="cls-1" d="m755.76,125.82h-44.82l-.03-18.7h39.77c.96,0,1.72-.74,1.72-1.68l.17-30.84c0-.94-.76-1.68-1.72-1.68h-39.84l-.08-17.93h43.68c.96,0,1.72-.74,1.72-1.68V20.95c0-.94-.76-1.68-1.72-1.68h-73.92c-.96,0-1.72.74-1.72,1.68v138.92c0,.94.76,1.68,1.72,1.68h75.25c.96,0,1.72-.74,1.72-1.69l-.17-32.36c0-.94-.76-1.68-1.72-1.68Z"/>
      <path class="cls-1" d="m913.6,19.26h-29.03c-.93,0-1.65.7-1.65,1.59v139.09c0,.89.72,1.59,1.65,1.59h29.03c.93,0,1.65-.7,1.65-1.59V20.85c0-.89-.72-1.59-1.65-1.59Z"/>
      <path class="cls-1" d="m34.62,89.23h-.01c-1.28-.23-2.55-.28-3.78-.14-1.35.15-2.81.76-4.44,1.86-8.38,5.61-16.87,11.39-25.23,17.16-.72.49-1.15,1.35-1.15,2.29v60.16c0,1.28.76,2.34,1.88,2.64.51.14,1.06.21,1.64.21,5.87,0,15.14-6.78,24.91-13.91,2.49-1.82,4.84-3.54,7.13-5.14.71-.49,1.13-1.34,1.13-2.29v-60.16c0-1.35-.85-2.46-2.07-2.68Z"/>
      <path class="cls-1" d="m264.9,87.64c-.06-.04-.11-.09-.16-.15-.04-.04-.08-.09-.11-.14,0,0-.01-.01-.02-.02h0s1.17-.58,1.17-.58l-.11-.18h0s-.01-.02-.01-.02c0,0,0,.01.01.02l-1.18.56s0,0,0,0c-.03-.04-.04-.09-.06-.13,0-.01,0-.02-.01-.03-.01-.02-.02-.05-.03-.07-.01-.03-.02-.06-.03-.09,0-.01,0-.02,0-.04,0,0,0-.01,0-.02-.01-.04-.02-.08-.02-.12,0,0,0-.01,0-.02,0-.04-.01-.07-.01-.11,0-.07-.01-.14-.01-.21h0c0-.07,0-.14.01-.2,0-.03,0-.06.01-.09,0-.02.01-.05.02-.07l.25.23.17-.47.02-.04s.04-.08.07-.13l-.2-.09.04-.03-.04.03-.09-.04s.03-.06.05-.09c0,0,0,0,0,0l1.04.53-.85-.75s0,0,0,0c5.49-4.98,9.2-11.83,11.13-20.53,5.54-25-12.73-43.63-29.98-43.96-5.81-.11-12.9-.16-21.27-.16-1.5,0-3.05,0-4.63,0-1.05,0-2.13,0-3.22,0-2.18.01-4.44.02-6.77.04-1.16,0-2.35.01-3.55.02-.61,0-1.22,0-1.83.01h-.15l-3.55.03c-1.26.01-2.54.02-3.83.04-.64,0-1.16.68-1.16,1.52v136.56c-.01.84.5,1.52,1.14,1.54,20.83.4,37.37.41,49.61.03,18.92-.59,36.95-21.08,32.19-47.85-1.97-11.07-6.65-19.3-14.04-24.7Zm-39.64-37.25c4.35-.07,8.74-.11,13.14-.11,9.7-.01,14.97,15.55,6.38,22.43-4.2,3.37-14.26,2.35-19.45,2.08-.63-.02-1.12-.69-1.12-1.52l-.11-21.34c0-.85.51-1.54,1.16-1.55Zm20.43,76.56c-1.49.98-3.95,1.51-7.36,1.57-4.33.08-8.67.07-13.01-.02-.64-.02-1.14-.69-1.15-1.53l-.04-22c0-.82.49-1.5,1.1-1.53,4.52-.28,9.01-.31,13.45-.11,3.56.18,6.19,1.05,7.88,2.62,5.52,5.14,5.2,17.03-.88,21.01Z"/>
      <path class="cls-1" d="m358.11,21.41c-.18-.58-.6-.95-1.08-.95h-27.14c-.47,0-.9.38-1.08.96-13.02,43.48-26.04,86.97-39.06,130.46-.48,1.63-.5,4.03-.06,7.22.1.73.59,1.26,1.15,1.26h26.96c.49,0,.93-.41,1.09-1.02l5.37-20.53c.16-.62.59-1.04,1.09-1.04l36.29-.05c.5,0,.95.41,1.1,1.03l5.32,20.57c.16.62.6,1.04,1.09,1.04h27.82c.59,0,1.09-.59,1.16-1.36.3-3.52-.13-7.18-1.3-11.01-12.88-42.19-25.8-84.39-38.74-126.58Zm-3.44,86.02l-22.33.06c-.05,0-.1,0-.14-.03-.19-.09-.28-.37-.21-.61l11.12-41.6c.03-.13.11-.23.2-.27.19-.1.4.03.47.27l11.23,41.55s.02.1.02.15c0,.27-.16.48-.36.48Z"/>
      <path class="cls-1" d="m483.81,110.79c-.29-.69-.14-1.55.35-2,30.7-28.29,14.63-87.64-22.05-88.29-7.18-.12-22.68-.12-46.47.03-.65,0-1.16.69-1.16,1.53v136.78c-.01.85.51,1.53,1.15,1.53h26.92c.64,0,1.17-.68,1.17-1.52l.15-39.7c0-.83.51-1.5,1.14-1.52l8.52-.24c.43-.02.84.3,1.04.82l16.82,41.35c.2.5.59.81,1.02.81h27.74c.57,0,1.07-.56,1.15-1.32.37-3.38-.17-6.79-1.62-10.26-5.3-12.66-10.59-25.32-15.88-38Zm-21.15-27.03c-1.38.64-3.57.99-6.56,1.05-2.05.04-4.09.06-6.12.06-1.69,0-3.38-.01-5.05-.04-.64-.01-1.14-.69-1.14-1.54l.04-27.11c0-.82.49-1.49,1.12-1.53,4.24-.28,8.48-.22,12.71.18,3.26.3,5.74,1.19,7.45,2.65,7.6,6.51,6.21,22.25-2.45,26.26Z"/>
      <path class="cls-1" d="m592.99,89.4c-.77-.63-1.51-1.28-2.22-1.96-.08-.08-.16-.18-.22-.28-.01-.02-.03-.03-.03-.04,0-.01-.02-.02-.03-.04,0-.01-.01-.02-.01-.03-.03-.05-.05-.1-.07-.16-.02-.05-.04-.11-.05-.16-.02-.05-.03-.1-.03-.15-.01-.04-.01-.09-.02-.13,0-.01,0-.02,0-.03,0-.07-.01-.14-.01-.21s0-.15.01-.22c0-.02,0-.03,0-.05,0-.07.02-.13.04-.2.01-.05.03-.11.04-.16,0-.02.01-.04.02-.07l.31.09c.03-.07.06-.13.09-.19l.73-1.2c6.28-6.03,9.92-13.85,10.87-23.5,2.46-25.05-14.62-40.09-31.95-40.16-21.78-.09-37.58-.04-47.39.15-.63,0-1.14.69-1.14,1.53l.03,136.54c0,.84.52,1.52,1.15,1.52,16.41.15,32.79.12,49.17-.1,15.41-.22,29.74-12.62,32.63-33.13,1.94-13.75-2.14-29.74-11.95-37.65Zm-42.84-37.38c0-.82.5-1.5,1.13-1.54,4.32-.2,8.59-.23,12.8-.12,12.62.34,14.75,21.01,3.4,24.01-3.02.8-8.43.92-16.23.37-.62-.04-1.1-.71-1.1-1.53v-21.19Zm17.64,76.4c-2.69.23-8.19.26-16.5.07-.63-.02-1.14-.69-1.14-1.53v-22.14c0-.85.52-1.54,1.16-1.54,3.65-.02,7.29-.04,10.91-.06,4.38-.03,7.59.67,9.62,2.1,7.88,5.55,5.15,22.27-4.05,23.09Z"/>
      <path class="cls-1" d="m846.14,110.65c-.29-.71-.11-1.6.41-2.02,26.11-21.82,18.65-74.53-10.29-85.75-4.01-1.55-11.38-2.35-22.11-2.41-12.13-.05-24.25-.04-36.37.02-.64,0-1.16.68-1.16,1.53l.09,136.81c0,.85.52,1.53,1.16,1.53h27c.64,0,1.16-.68,1.16-1.53l.15-39.82c0-.84.52-1.52,1.15-1.52l8.59-.06c.43-.01.83.29,1.03.8l16.76,41.32c.2.5.59.81,1.02.81h27.73c.57,0,1.07-.56,1.15-1.32.38-3.42-.16-6.85-1.6-10.27-5.33-12.66-10.61-25.37-15.86-38.11Zm-18.3-28.87c-2.02,1.86-5.23,2.87-9.63,3.02-3.5.12-7.16.1-11.01-.08-.63-.03-1.12-.71-1.12-1.55l.07-26.93c0-.82.47-1.49,1.09-1.54,7.32-.59,12.84-.39,16.57.62,9.13,2.47,11.69,19.44,4.03,26.46Z"/>
    </g>
  </g>
</svg>