<?xml version="1.0" encoding="UTF-8"?>
<svg id="Layer_2" data-name="Layer 2" xmlns="http://www.w3.org/2000/svg" viewBox="0 0 1539.39 653.92">
  <defs>
    <style>
      .cls-1 {
        stroke-linejoin: round;
      }

      .cls-1, .cls-2 {
        fill: none;
        stroke-width: 20.8px;
      }

      .cls-1, .cls-2, .cls-3 {
        stroke: #1e1e1e;
      }

      .cls-2, .cls-3 {
        stroke-miterlimit: 10;
      }

      .cls-3 {
        stroke-width: 1.41px;
      }

      .cls-3, .cls-4 {
        fill: #1e1e1e;
      }
    </style>
  </defs>
  <g id="Layer_1-2" data-name="Layer 1">
    <g>
      <g>
        <path class="cls-4" d="m613.29,73.61h-37.76v44.78h42.08v13.45h-54.62V7.63h52.45v13.45h-39.92v39.25h37.76v13.27Z"/>
        <path class="cls-4" d="m633.88,131.84V7.63h13.69l31.12,62.84c7.21,14.56,12.83,27.65,17.44,40.36l.28-.18c-1.15-16.59-1.44-31.7-1.44-51.05V7.63h11.82v124.21h-12.68l-30.84-63.02c-6.77-13.83-13.26-28.01-18.16-41.47l-.44.19c.72,15.66,1.01,30.59,1.01,51.23v53.07h-11.82Z"/>
        <path class="cls-4" d="m796.55,127.79c-4.61,2.95-13.84,5.9-25.65,5.9-27.38,0-47.99-22.11-47.99-62.84s20.61-65.24,50.72-65.24c12.11,0,19.75,3.32,23.06,5.53l-3.03,13.08c-4.75-2.95-11.53-5.16-19.6-5.16-22.77,0-37.9,18.61-37.9,51.23,0,30.4,13.69,49.94,37.32,49.94,7.64,0,15.42-2.03,20.47-5.16l2.59,12.72Z"/>
        <path class="cls-4" d="m824.77,7.63v51.97h46.98V7.63h12.68v124.21h-12.68v-58.23h-46.98v58.23h-12.54V7.63h12.54Z"/>
        <path class="cls-4" d="m921.87,92.77l-10.09,39.07h-12.97l33-124.21h15.13l33.15,124.21h-13.4l-10.38-39.07h-34.44Zm31.85-12.53l-9.51-35.75c-2.16-8.1-3.6-15.47-5.04-22.67h-.29c-1.44,7.37-3.02,14.93-4.9,22.49l-9.51,35.93h29.25Z"/>
        <path class="cls-4" d="m994.33,9.1c6.05-1.29,13.98-2.39,24.06-2.39,12.39,0,21.48,3.69,27.24,10.32,5.33,5.9,8.5,14.93,8.5,25.98s-2.59,20.09-7.49,26.54c-6.63,9.03-17.44,13.64-29.69,13.64-3.75,0-7.2-.19-10.09-1.1v49.75h-12.54V9.1Zm12.54,59.89c2.74.92,6.2,1.29,10.38,1.29,15.13,0,24.35-9.4,24.35-26.54s-9.08-24.33-22.92-24.33c-5.48,0-9.66.56-11.82,1.29v48.28Z"/>
        <path class="cls-4" d="m1074.58,92.77l-10.09,39.07h-12.97l33-124.21h15.13l33.15,124.21h-13.4l-10.38-39.07h-34.44Zm31.85-12.53l-9.51-35.75c-2.16-8.1-3.6-15.47-5.04-22.67h-.29c-1.44,7.37-3.02,14.93-4.9,22.49l-9.51,35.93h29.25Z"/>
        <path class="cls-4" d="m1147.04,9.29c7.64-1.47,16.72-2.58,26.66-2.58,18.02,0,30.84,5.34,39.34,15.48,8.65,10.13,13.69,24.51,13.69,44.59s-4.9,36.86-13.98,48.29c-9.08,11.61-24.07,17.87-42.95,17.87-8.94,0-16.43-.55-22.77-1.47V9.29Zm12.54,109.83c3.17.74,7.78.92,12.68.92,26.8,0,41.36-19.17,41.36-52.7.14-29.31-12.83-47.92-39.35-47.92-6.48,0-11.38.74-14.7,1.66v98.04Z"/>
        <path class="cls-4" d="m1325.99,68.45c0,42.75-20.31,65.42-45.1,65.42s-43.67-25.43-43.67-63.02c0-39.44,19.17-65.24,45.1-65.24s43.66,25.99,43.66,62.84Zm-75.37,2.03c0,26.54,11.24,50.31,30.98,50.31s31.13-23.4,31.13-51.6c0-24.7-10.09-50.49-30.98-50.49s-31.13,24.51-31.13,51.78Z"/>
        <path class="cls-4" d="m1342.25,9.29c6.34-1.66,15.42-2.58,24.06-2.58,13.4,0,22.04,3.13,28.1,10.13,4.9,5.53,7.64,14.01,7.64,23.59,0,16.4-8.08,27.27-18.31,31.7v.55c7.5,3.32,11.96,12.17,14.27,25.06,3.17,17.33,5.48,29.3,7.49,34.09h-12.97c-1.58-3.5-3.75-14.19-6.48-29.67-2.89-17.13-8.08-23.59-19.46-24.14h-11.82v53.81h-12.54V9.29Zm12.54,56.58h12.83c13.4,0,21.91-9.4,21.91-23.59,0-16.04-9.09-23.04-22.35-23.22-6.05,0-10.37.74-12.39,1.47v45.34Z"/>
        <path class="cls-4" d="m1436.18,92.77l-10.09,39.07h-12.97l33-124.21h15.13l33.15,124.21h-13.41l-10.38-39.07h-34.44Zm31.85-12.53l-9.51-35.75c-2.17-8.1-3.61-15.47-5.05-22.67h-.29c-1.44,7.37-3.02,14.93-4.9,22.49l-9.51,35.93h29.25Z"/>
      </g>
      <path class="cls-4" d="m554.46,244.62c0-41.51,19.25-52.68,44.31-52.96,19.24-.29,49.45,4.01,60.64,7.73v26.34c-14.32-1.43-49.9-2.86-55.05-2.86-14.54-.57-23.94.86-23.94,23.76v13.45c0,20.04,6.71,22.9,19.47,22.9h28.19c31.1,0,37.37,30.06,37.37,53.25v16.03c0,44.95-23.27,52.96-45.43,52.96s-46.1-3.15-60.42-8.02v-26.34c8.95,1.15,35.8,3.15,56.61,3.15,9.18,0,23.27-1.43,23.27-20.9v-14.31c0-13.45-3.36-22.61-16.11-22.61h-27.52c-38.04,0-41.4-32.92-41.4-53.25v-18.32Z"/>
      <path class="cls-4" d="m732.58,193.38h28.64l54.82,209.55h-28.42l-12.53-50.67h-57.96l-12.75,50.67h-28.87l57.06-209.55Zm35.8,128.54l-21.48-83.31-22.38,83.31h43.86Z"/>
      <path class="cls-4" d="m835.29,193.38h26.4l72.95,148.01v-148.01h25.96v209.55h-25.96l-73.17-147.15v147.15h-26.18v-209.55Z"/>
      <path class="cls-4" d="m1027.61,422.67c19.02,3.15,35.35,6.87,35.58-26.62l1.75-202.28h25.96l-1.75,213.44c0,13.45-.67,32.92-11.86,42.08-11.86,9.73-38.49,8.59-50.12-1.15l.45-25.48Z"/>
      <path class="cls-4" d="m1117.3,193.77h25.96l-1.75,117.95c0,57.26,11.64,61.84,36.25,61.84,21.26,0,34.91-6.58,34.91-61.84l1.75-117.95h26.18l-1.75,117.95c0,92.47-34.01,93.04-61.09,93.04-30.43,0-62.21,2.29-62.21-93.04l1.75-117.95Z"/>
      <path class="cls-4" d="m1311.36,193.38h28.64l53.08,209.55h-28.42l-12.53-50.67h-57.96l-12.75,50.67h-28.87l58.81-209.55Zm34.05,128.54l-21.48-83.31-22.38,83.31h43.86Z"/>
      <path class="cls-4" d="m1414.08,193.38h26.4l71.2,148.01,1.75-148.01h25.96l-1.75,209.55h-25.96l-73.17-147.15v147.15h-26.18l1.75-209.55Z"/>
      <path class="cls-4" d="m575.18,636.08l7.92-10.13.8.27c.43.1,1.47.14,3.1.14,3.96,0,6.9-1.8,8.8-5.41,1.91-3.6,3.68-10.65,5.33-21.15l8.51-54.91h-13.54c-13.74,0-20.6,6.94-20.6,20.81,0,1.64.16,3.67.48,6.09l-11.13,6.64c1.5-13.42,6.05-24.05,13.65-31.9,7.6-7.85,17.16-11.77,28.68-11.77h22.69c10.24,0,17.02-.87,20.34-2.6,3.32-1.74,5.56-5.59,6.74-11.57l8.03-4.18c-2.5,8.49-7.31,15.36-14.45,20.61-7.13,5.25-15.23,7.87-24.29,7.87h-5.35l-7.44,47.71c-1.32,8.59-3.27,15.35-5.86,20.3-2.59,4.95-6.65,9.69-12.18,14.21l20.66.55-7.44,10.13-33.45-1.71Z"/>
      <path class="cls-4" d="m672.28,598.91h-.97c-4.03,11.46-8.88,20.8-14.54,28.04-5.67,7.23-10.98,10.85-15.93,10.85-7.52,0-11.28-6.03-11.28-18.08,0-13.28,4.14-26.29,12.42-39.02,8.56-13.19,19.02-19.78,31.36-19.78,5.1,0,10.43.28,16,.82l-3.85,20.26-5.19,33.82c-.82,5.29-1.23,8.71-1.23,10.27,0,2.88,1.05,4.31,3.16,4.31,3.57,0,8.88-5.02,15.95-15.06l-.96,6.37c-7.83,10.72-14.85,16.09-21.07,16.09-5.18,0-7.77-3.45-7.77-10.34,0-2.28.43-6.16,1.29-11.63l2.63-16.91Zm4.3-27.38c-4.49-2.56-8.93-3.83-13.32-3.83-6.49,0-11.68,5.25-15.57,15.75-4.57,12.41-6.85,23.57-6.85,33.47,0,7.17,1.64,10.75,4.92,10.75,3.07,0,7.48-4.12,13.24-12.36,5.76-8.24,10.81-17.65,15.16-28.24l2.42-15.54Z"/>
      <path class="cls-4" d="m689.73,636.08l3.8-20.26,7.39-47.31c2.57-16.52,7.41-29.38,14.53-38.57,7.12-9.2,15.78-13.8,25.98-13.8,3.53,0,6.74.48,9.63,1.44l-7.39,9.79c-4.14-2.42-7.71-3.63-10.7-3.63-5.67,0-9.92,2.63-12.76,7.9-2.84,5.27-5.4,15.3-7.68,30.09l-5.78,37.17h.91c4.1-11.5,8.98-20.84,14.63-28.03,5.66-7.19,10.96-10.78,15.92-10.78,7.56,0,11.34,6.03,11.34,18.07,0,13.33-4.12,26.36-12.36,39.09-8.49,13.1-18.86,19.64-31.09,19.64-1.82,0-4.12-.06-6.9-.2l-9.47-.62Zm12.73-9.65c4.42,2.51,8.88,3.76,13.38,3.76,6.46,0,11.63-5.25,15.52-15.75,4.6-12.41,6.9-23.57,6.9-33.47,0-7.17-1.66-10.75-4.98-10.75-3.03,0-7.43,4.12-13.19,12.36-5.76,8.24-10.83,17.67-15.22,28.3l-2.41,15.54Z"/>
      <path class="cls-4" d="m777.04,615l-.96,6.3c-8.43,11-15.68,16.5-21.74,16.5-5.07,0-7.6-3.49-7.6-10.48,0-2.88.37-6.73,1.12-11.57l7.34-47.24c2.57-16.52,7.42-29.38,14.54-38.57,7.13-9.2,15.79-13.8,26.01-13.8,3.57,0,6.78.48,9.64,1.44l-7.34,9.79c-4.14-2.42-7.71-3.63-10.72-3.63-5.68,0-9.95,2.65-12.8,7.94-2.86,5.29-5.43,15.31-7.72,30.05l-8.41,54.08c-.82,5.25-1.23,8.67-1.23,10.27,0,2.88,1.05,4.31,3.16,4.31,2.4,0,7.02-4.06,13.88-12.18.54-.64,1.48-1.71,2.84-3.22Z"/>
      <path class="cls-4" d="m815.67,617.33l-.81,5.27c-11.34,10.13-21.01,15.2-29.01,15.2-5.06,0-9.17-2.27-12.33-6.81-3.16-4.54-4.73-10.41-4.73-17.61,0-12.85,3.85-24.95,11.56-36.28,7.71-11.33,15.93-17,24.67-17,3.18,0,5.74,1.37,7.71,4.1,1.96,2.73,2.94,6.29,2.94,10.66,0,8.75-3.5,16.27-10.49,22.56-6.99,6.29-15.34,9.43-25.04,9.43l-.05,3.08c0,13.33,3.82,19.99,11.45,19.99,6.6,0,14.64-4.2,24.13-12.6Zm-35.43-14.65c7.99-.82,14.23-3.45,18.73-7.9,4.5-4.45,6.74-10.21,6.74-17.28s-1.98-10.48-5.94-10.48c-4.28,0-8.42,3.64-12.42,10.92-4,7.28-6.37,15.53-7.12,24.74Z"/>
      <path class="cls-4" d="m819.32,636.9l3.96-21.06,5.19-33.44c.54-3.37.8-6.29.8-8.75,0-3.92-1.07-5.88-3.21-5.88-3.78,0-9.19,5.15-16.22,15.46l.96-6.08c8.24-11.36,15.39-17.04,21.46-17.04,5.14,0,7.71,3.76,7.71,11.28,0,3.33-.32,7.03-.96,11.09l-2.57,16.48h.69c4.25-11.42,9.27-20.75,15.06-27.99,5.8-7.24,11.11-10.86,15.92-10.86,2.5,0,4.73.71,6.69,2.14l-7.12,12.37c-2.11-1.78-3.89-2.67-5.35-2.67-6.96,0-16.21,13.06-27.77,39.19l-3.9,24.96-11.34.82Z"/>
      <path class="cls-4" d="m879.91,637.79c-4.67,0-8.57-2.34-11.69-7.02-3.12-4.68-4.68-10.51-4.68-17.49,0-13.15,3.89-25.29,11.67-36.46,7.78-11.16,16.25-16.74,25.42-16.74,4.96,0,9.05,2.28,12.25,6.84,3.21,4.56,4.82,10.38,4.82,17.46,0,13.65-3.89,25.95-11.67,36.93-7.78,10.98-16.49,16.47-26.11,16.47Zm6.1-5.96c5.28,0,9.93-4.35,13.94-13.04,4.01-8.7,6.02-18.79,6.02-30.29,0-15.11-3.6-22.66-10.81-22.66-5.1,0-9.69,4.48-13.78,13.45-4.09,8.97-6.13,19.07-6.13,30.29,0,14.84,3.59,22.25,10.76,22.25Z"/>
      <path class="cls-4" d="m907.16,633.75l7.07-9.24c4.63,4.34,9.34,6.5,14.15,6.5,2.95,0,5.45-.99,7.48-2.98,2.03-1.99,3.04-4.44,3.04-7.36,0-3.24-2.02-7.67-6.05-13.28l-4.87-6.84c-4.74-6.66-7.12-12.23-7.12-16.7,0-6.2,2.3-11.71,6.9-16.53,4.6-4.81,9.86-7.22,15.79-7.22,3.24,0,6.88.87,10.91,2.6l-2.35,15.13h-3.43l.16-1.17c.07-.41.1-.89.1-1.44,0-6.16-3.1-9.24-9.29-9.24-6.94,0-10.41,3.56-10.41,10.68,0,3.61,2.07,8.4,6.21,14.37l4.39,6.23c4.78,6.89,7.17,12.55,7.17,16.98,0,6.12-2.54,11.57-7.6,16.36-5.06,4.79-10.83,7.19-17.29,7.19-4.53,0-9.52-1.35-14.98-4.04Z"/>
      <path class="cls-4" d="m974.3,636.08l7.87-10.13.8-.13c.22-.05.68-.02,1.39.06.35.05.75.07,1.18.07,3.89,0,6.82-1.52,8.8-4.55,1.98-3.03,3.58-8.47,4.79-16.32l10.11-64.96c-7.35,0-13.29,2.52-17.82,7.56-4.53,5.04-6.8,11.63-6.8,19.75v1.5l-10.38,6.43c1.85-27.06,17.08-40.59,45.7-40.59h15.47c11.92,0,20.51,2.84,25.79,8.52,5.28,5.68,7.92,14.96,7.92,27.83,0,20.85-5.63,37.18-16.88,48.98-11.26,11.8-26.8,17.7-46.64,17.7-.82,0-2.48-.07-4.98-.21l-26.33-1.5Zm19.32-8.63l9.52,2.06c5.17,1.14,10.43,1.71,15.78,1.71,7.35,0,13.08-1.29,17.18-3.87,4.1-2.58,7.9-7.29,11.4-14.13,6.17-12.05,9.26-25.44,9.26-40.18,0-22.73-9.81-34.09-29.44-34.09h-6.69l-8.19,52.51c-1.47,9.54-3.48,16.75-6.05,21.63-2.57,4.88-6.83,9.68-12.79,14.37Z"/>
      <path class="cls-4" d="m1114.04,617.33l-.81,5.27c-11.34,10.13-21.01,15.2-29.01,15.2-5.06,0-9.17-2.27-12.33-6.81-3.16-4.54-4.73-10.41-4.73-17.61,0-12.85,3.85-24.95,11.56-36.28,7.71-11.33,15.93-17,24.67-17,3.18,0,5.74,1.37,7.71,4.1,1.96,2.73,2.94,6.29,2.94,10.66,0,8.75-3.5,16.27-10.49,22.56-6.99,6.29-15.34,9.43-25.04,9.43l-.05,3.08c0,13.33,3.82,19.99,11.45,19.99,6.6,0,14.64-4.2,24.13-12.6Zm-35.43-14.65c7.99-.82,14.23-3.45,18.73-7.9,4.5-4.45,6.74-10.21,6.74-17.28s-1.98-10.48-5.94-10.48c-4.28,0-8.42,3.64-12.42,10.92-4,7.28-6.37,15.53-7.12,24.74Z"/>
      <path class="cls-4" d="m1160.12,617.26l-.8,5.34c-11.7,10.13-21.3,15.2-28.79,15.2-5.17,0-9.33-2.24-12.47-6.71-3.14-4.47-4.71-10.38-4.71-17.73,0-13.28,3.93-25.47,11.77-36.59,7.85-11.11,16.49-16.67,25.9-16.67,4.14,0,8.26,1.16,12.36,3.49l-3.59,17.59h-3.32l.16-1.03c.36-2.14.54-3.72.54-4.72,0-6.3-3.34-9.45-10.01-9.45-6.28,0-11.51,4.29-15.68,12.87-4.17,8.58-6.26,19.35-6.26,32.31s3.6,18.55,10.81,18.55,14.88-4.15,24.08-12.46Z"/>
      <path class="cls-4" d="m1176.46,637.79c-4.67,0-8.57-2.34-11.69-7.02-3.12-4.68-4.68-10.51-4.68-17.49,0-13.15,3.89-25.29,11.67-36.46,7.78-11.16,16.25-16.74,25.42-16.74,4.96,0,9.05,2.28,12.25,6.84,3.21,4.56,4.82,10.38,4.82,17.46,0,13.65-3.89,25.95-11.67,36.93-7.78,10.98-16.49,16.47-26.11,16.47Zm6.1-5.96c5.28,0,9.93-4.35,13.94-13.04,4.01-8.7,6.02-18.79,6.02-30.29,0-15.11-3.6-22.66-10.81-22.66-5.1,0-9.69,4.48-13.78,13.45-4.09,8.97-6.13,19.07-6.13,30.29,0,14.84,3.59,22.25,10.76,22.25Z"/>
      <path class="cls-4" d="m1215.11,636.9l3.96-21.06,5.19-33.44c.54-3.37.8-6.29.8-8.75,0-3.92-1.07-5.88-3.21-5.88-3.78,0-9.19,5.15-16.22,15.46l.96-6.08c8.24-11.36,15.39-17.04,21.46-17.04,5.14,0,7.71,3.76,7.71,11.28,0,3.33-.32,7.03-.96,11.09l-2.57,16.48h.69c4.25-11.42,9.27-20.75,15.06-27.99,5.8-7.24,11.11-10.86,15.92-10.86,2.5,0,4.73.71,6.69,2.14l-7.12,12.37c-2.11-1.78-3.89-2.67-5.35-2.67-6.96,0-16.21,13.06-27.77,39.19l-3.9,24.96-11.34.82Z"/>
      <path class="cls-4" d="m1301.19,598.91h-.97c-4.03,11.46-8.88,20.8-14.54,28.04-5.67,7.23-10.98,10.85-15.93,10.85-7.52,0-11.28-6.03-11.28-18.08,0-13.28,4.14-26.29,12.42-39.02,8.56-13.19,19.02-19.78,31.36-19.78,5.1,0,10.43.28,16,.82l-3.85,20.26-5.19,33.82c-.82,5.29-1.23,8.71-1.23,10.27,0,2.88,1.05,4.31,3.16,4.31,3.57,0,8.88-5.02,15.95-15.06l-.96,6.37c-7.83,10.72-14.85,16.09-21.07,16.09-5.18,0-7.77-3.45-7.77-10.34,0-2.28.43-6.16,1.29-11.63l2.63-16.91Zm4.3-27.38c-4.49-2.56-8.93-3.83-13.32-3.83-6.49,0-11.68,5.25-15.57,15.75-4.57,12.41-6.85,23.57-6.85,33.47,0,7.17,1.64,10.75,4.92,10.75,3.07,0,7.48-4.12,13.24-12.36,5.76-8.24,10.81-17.65,15.16-28.24l2.42-15.54Z"/>
      <path class="cls-4" d="m1333.02,566.81h-12.25l3.7-5.07h9.31l3.05-19.37,11.08-3.43-3.53,22.8h20.17l-4.39,6.03c-4.6-.64-8.69-.96-12.25-.96h-4.34l-7.28,46.89c-.75,4.84-1.12,8.24-1.12,10.2,0,3.6,1.25,5.41,3.75,5.41,3.85,0,9.11-3.65,15.78-10.96l-.96,6.3c-6.92,8.77-13.57,13.15-19.96,13.15s-9.1-4.29-9.1-12.87c0-3.06.39-7.12,1.18-12.19l7.17-45.93Z"/>
      <path class="cls-4" d="m1392.87,615.34l-.96,6.37c-7.81,10.72-14.83,16.09-21.03,16.09-5.14,0-7.71-3.45-7.71-10.34,0-2.32.41-6.16,1.23-11.5l3.69-23.82c1-6.75,1.5-11.25,1.5-13.49,0-3.83-1.16-5.75-3.48-5.75-1.61,0-4.48.78-8.61,2.33l.64-4.18,26.17-10.95-4.07,21.9-5.25,33.82c-.82,5.29-1.23,8.67-1.23,10.13,0,2.97,1.05,4.45,3.16,4.45,3.53,0,8.85-5.02,15.95-15.06Zm-19.64-67.15l3.59-9.31,15.09-12.6-4.61,12.6-14.07,9.31Z"/>
      <path class="cls-4" d="m1406.74,637.79l.27-9.3c0-18.01-1.28-32.22-3.85-42.64-2.57-10.42-6.05-15.62-10.43-15.62s-9.17,5.47-14.13,16.41l1.55-10.12c6.47-10.95,12.49-16.42,18.06-16.42,12.4,0,18.59,19.97,18.59,59.9v3.76l4.38-6.77c12.99-20.08,19.49-34.68,19.49-43.8,0-4.29-1.18-8.1-3.53-11.43l11.45-1.65c1.75,3.33,2.62,6.37,2.62,9.1,0,3.83-1.22,8.15-3.66,12.94-2.44,4.79-7.75,13.26-15.91,25.4l-19.14,28.55-5.76,1.71Z"/>
      <path class="cls-4" d="m1464.76,637.79c-4.67,0-8.57-2.34-11.69-7.02-3.12-4.68-4.68-10.51-4.68-17.49,0-13.15,3.89-25.29,11.67-36.46,7.78-11.16,16.25-16.74,25.42-16.74,4.96,0,9.05,2.28,12.25,6.84,3.21,4.56,4.82,10.38,4.82,17.46,0,13.65-3.89,25.95-11.67,36.93-7.78,10.98-16.49,16.47-26.11,16.47Zm6.1-5.96c5.28,0,9.93-4.35,13.94-13.04,4.01-8.7,6.02-18.79,6.02-30.29,0-15.11-3.6-22.66-10.81-22.66-5.1,0-9.69,4.48-13.78,13.45-4.09,8.97-6.13,19.07-6.13,30.29,0,14.84,3.59,22.25,10.76,22.25Z"/>
      <path class="cls-4" d="m1492.01,633.75l7.07-9.24c4.63,4.34,9.34,6.5,14.15,6.5,2.95,0,5.45-.99,7.48-2.98,2.03-1.99,3.04-4.44,3.04-7.36,0-3.24-2.02-7.67-6.05-13.28l-4.87-6.84c-4.74-6.66-7.12-12.23-7.12-16.7,0-6.2,2.3-11.71,6.9-16.53,4.6-4.81,9.86-7.22,15.79-7.22,3.24,0,6.88.87,10.91,2.6l-2.35,15.13h-3.43l.16-1.17c.07-.41.1-.89.1-1.44,0-6.16-3.1-9.24-9.29-9.24-6.94,0-10.41,3.56-10.41,10.68,0,3.61,2.07,8.4,6.21,14.37l4.39,6.23c4.78,6.89,7.17,12.55,7.17,16.98,0,6.12-2.54,11.57-7.6,16.36-5.06,4.79-10.83,7.19-17.29,7.19-4.53,0-9.52-1.35-14.98-4.04Z"/>
      <path class="cls-3" d="m196.74,429.21v33.76c0,3.42,2.08,6.18,4.65,6.18h8.59c2.57,0,4.65,2.77,4.65,6.18v42.86c0,3.42,2.08,6.18,4.65,6.18h52.98c2.57,0,4.65-2.77,4.65-6.18v-42.86c0-3.42,2.08-6.18,4.65-6.18h8.59c2.57,0,4.65-2.77,4.65-6.18v-33.76c0-3.42-2.08-6.18-4.65-6.18h-88.75c-2.57,0-4.65,2.77-4.65,6.18Z"/>
      <path class="cls-3" d="m276.91,164.51v-53.2c0-1.13-.69-2.05-1.54-2.05h-59.2c-.85,0-1.54.92-1.54,2.05v53.2c0,1.13-.69,2.05-1.54,2.05h-11.41c-1.51,0-2.12,2.59-.87,3.73l20.44,18.74,23.64,21.67c.53.48,1.22.48,1.75,0l23.64-21.67,20.44-18.74c1.24-1.14.64-3.73-.87-3.73h-11.41c-.85,0-1.54-.92-1.54-2.05Z"/>
      <polygon class="cls-2" points="478.53 326.96 245.77 636.61 13.01 326.96 245.77 17.31 478.53 326.96"/>
      <path class="cls-3" d="m78.16,307.34v37.49c0,1.65,1.01,3,2.25,3h329.39c1.24,0,2.25-1.34,2.25-3v-37.49c0-1.65-1.01-3-2.25-3H80.41c-1.24,0-2.25,1.34-2.25,3Zm25.06,30.15h-12.65c-1.24,0-2.25-1.34-2.25-3v-16.83c0-1.65,1.01-3,2.25-3h12.65c1.24,0,2.25,1.34,2.25,3v16.83c0,1.65-1.01,3-2.25,3Zm32.94,0h-12.65c-1.24,0-2.25-1.34-2.25-3v-16.83c0-1.65,1.01-3,2.25-3h12.65c1.24,0,2.25,1.34,2.25,3v16.83c0,1.65-1.01,3-2.25,3Zm32.94,0h-12.65c-1.24,0-2.25-1.34-2.25-3v-16.83c0-1.65,1.01-3,2.25-3h12.65c1.24,0,2.25,1.34,2.25,3v16.83c0,1.65-1.01,3-2.25,3Zm32.94,0h-12.65c-1.24,0-2.25-1.34-2.25-3v-16.83c0-1.65,1.01-3,2.25-3h12.65c1.24,0,2.25,1.34,2.25,3v16.83c0,1.65-1.01,3-2.25,3Zm32.94,0h-12.65c-1.24,0-2.25-1.34-2.25-3v-16.83c0-1.65,1.01-3,2.25-3h12.65c1.24,0,2.25,1.34,2.25,3v16.83c0,1.65-1.01,3-2.25,3Zm32.94,0h-12.65c-1.24,0-2.25-1.34-2.25-3v-16.83c0-1.65,1.01-3,2.25-3h12.65c1.24,0,2.25,1.34,2.25,3v16.83c0,1.65-1.01,3-2.25,3Zm32.94,0h-12.65c-1.24,0-2.25-1.34-2.25-3v-16.83c0-1.65,1.01-3,2.25-3h12.65c1.24,0,2.25,1.34,2.25,3v16.83c0,1.65-1.01,3-2.25,3Zm32.94,0h-12.65c-1.24,0-2.25-1.34-2.25-3v-16.83c0-1.65,1.01-3,2.25-3h12.65c1.24,0,2.25,1.34,2.25,3v16.83c0,1.65-1.01,3-2.25,3Zm32.94,0h-12.65c-1.24,0-2.25-1.34-2.25-3v-16.83c0-1.65,1.01-3,2.25-3h12.65c1.24,0,2.25,1.34,2.25,3v16.83c0,1.65-1.01,3-2.25,3Zm32.94,0h-12.65c-1.24,0-2.25-1.34-2.25-3v-16.83c0-1.65,1.01-3,2.25-3h12.65c1.24,0,2.25,1.34,2.25,3v16.83c0,1.65-1.01,3-2.25,3Z"/>
      <path class="cls-1" d="m105.47,235.3s135.66,76.97,281.86,0"/>
      <path class="cls-1" d="m105.47,416.19s135.66-76.97,281.86,0"/>
    </g>
  </g>
</svg>