<?xml version="1.0" encoding="UTF-8"?>
<svg id="Layer_2" data-name="Layer 2" xmlns="http://www.w3.org/2000/svg" viewBox="0 0 308.6 328.39">
  <defs>
    <style>
      .cls-1 {
        fill: #ffad05;
      }

      .cls-2 {
        fill: #af7000;
      }
    </style>
  </defs>
  <g id="Layer_1-2" data-name="Layer 1">
    <g>
      <path class="cls-1" d="m308.34,328.39c-4.13-1.46-7.99-2.79-11.82-4.18-38.42-13.89-76.83-27.79-115.25-41.69-2.8-1.01-5.58-2.11-8.4-3.05-1.55-.51-2.26-1.3-2.15-3.03.16-2.45.04-4.91.04-7.37,0-82.21,0-164.42,0-246.62,0-.95,0-1.9,0-3.3,1.96.63,3.6,1.08,5.19,1.67,43.43,16.01,86.85,32.04,130.3,48.01,1.81.67,2.35,1.57,2.35,3.43-.04,84.49-.03,168.98-.03,253.47,0,.75-.12,1.51-.22,2.68Zm-113.77-151.7c.02,7.14,5.78,12.88,12.9,12.87,7.17-.01,12.87-5.72,12.87-12.88,0-7.12-5.78-12.9-12.88-12.88-7.11.01-12.91,5.81-12.89,12.9Zm65.17-74.61c-7.18-.05-12.94,5.59-13,12.74-.07,7.14,5.65,12.93,12.78,12.96,7.2.02,12.94-5.59,13.01-12.73.07-7.12-5.64-12.91-12.78-12.96Zm-.12,134.21c-7.23.04-12.87,5.66-12.88,12.85,0,7.13,5.73,12.85,12.89,12.85,7.13,0,12.92-5.79,12.89-12.87-.04-7.18-5.76-12.87-12.9-12.83Z"/>
      <path class="cls-1" d="m.19,328.3c-.06-1.31-.14-2.25-.14-3.19C.04,241.95.05,158.79,0,75.63c0-2.17.63-3.2,2.72-4.01,34.02-13.13,68-26.36,101.99-39.56,9.64-3.74,19.29-7.47,28.94-11.2.88-.34,1.78-.62,3.13-1.08,0,1.28,0,2.2,0,3.12,0,84.65,0,169.3.06,253.95,0,1.74-.59,2.42-2.12,2.98-39.08,14.09-78.15,28.23-117.21,42.35-4.78,1.73-9.55,3.48-14.34,5.2-.87.31-1.78.55-2.98.91ZM46.31,99.53c-7.29-.14-13.2,5.5-13.3,12.68-.1,7.1,5.52,12.91,12.65,13.08,7.08.16,12.96-5.45,13.16-12.56.2-7.06-5.5-13.06-12.51-13.19Zm-.32,136.77c-7.22,0-12.93,5.63-12.97,12.77-.04,7.13,5.68,12.89,12.83,12.93,7.12.05,12.99-5.73,12.98-12.79,0-7.18-5.71-12.91-12.84-12.91Zm63.51-58.07c0-7.25-5.61-12.88-12.82-12.88-7.21,0-12.88,5.64-12.88,12.81,0,7.19,5.67,12.9,12.81,12.91,7.21,0,12.88-5.65,12.89-12.84Z"/>
      <path class="cls-2" d="m134.51,15.71c-1.61-8.4,3.64-15.29,11.7-15.58,5.08-.18,10.17-.18,15.25,0,7.4.26,12.58,6.42,12,13.81-.13,1.66-.99,1.73-2.24,1.77-5.08.17-5.08.19-5.08,5.22,0,22.01-.04,44.01.05,66.02.01,2.46-.54,3.37-3.16,3.29-6.22-.19-12.45-.18-18.67,0-2.5.07-3.04-.8-3.03-3.15.08-22.62.05-45.24.05-67.86q0-3.5-3.61-3.52c-1.11,0-2.23,0-3.26,0Z"/>
      <path class="cls-2" d="m166.15,236.22c0,12.89-.07,25.79.04,38.68.04,4.66-1.21,8.63-5.46,10.88-4.62,2.44-9.53,2.41-14.12-.13-3.48-1.92-5.18-5.24-5.18-9.19-.05-27.19-.02-54.39-.06-81.58,0-1.63.56-2.11,2.15-2.09,6.67.07,13.33.11,20-.02,2.08-.04,2.69.56,2.68,2.65-.08,13.6-.04,27.19-.04,40.79Z"/>
      <path class="cls-2" d="m141.66,96.36h24.3v90.38h-24.3v-90.38Z"/>
    </g>
  </g>
</svg>