<?xml version="1.0" encoding="UTF-8"?>
<svg id="Layer_2" data-name="Layer 2" xmlns="http://www.w3.org/2000/svg" viewBox="0 0 1684.01 529.48">
  <defs>
    <style>
      .cls-1 {
        fill: #1e1e1e;
      }
    </style>
  </defs>
  <g id="Layer_1-2" data-name="Layer 1">
    <g>
      <polygon class="cls-1" points="218.58 22.43 0 22.43 0 390.66 49.24 390.66 46.85 211.35 188.55 211.35 188.55 155.32 46.85 155.32 46.85 70.43 218.58 70.43 218.58 22.43"/>
      <path class="cls-1" d="m365.09,0l-183.74,390.66h58.83l48.05-102.46h178.92l49.26,102.46h60.03L365.09,0Zm-60.05,244.96l63.65-137.68,73.26,137.68h-136.91Z"/>
      <path class="cls-1" d="m602.9,372.88h51.04v-152.1s174.16,25.31,174.16-106.77c0,0,6.02-90.74-120.11-90.74V1.93h165.15v370.95h229.22l47.07-106.75h172.16l62.06,106.75h56.06L1246.52,1.93h286.33s-127.11,54.7-127.11,169.44,116.09,186.84,171.15,186.84h105.1v128.12H602.9v-113.46Z"/>
      <path class="cls-1" d="m653.94,187.4V48.6s132.13-14.67,132.13,61.39-132.13,77.42-132.13,77.42Z"/>
      <polygon class="cls-1" points="923.25 1.93 923.25 322.19 1067.38 322.19 1219.53 1.93 923.25 1.93"/>
      <polygon class="cls-1" points="1235.52 77.98 1167.46 224.76 1307.6 224.76 1235.52 77.98"/>
      <path class="cls-1" d="m1684.01,307.5V28.58s-100.1-52.02-177.18,40.03c0,0-46.04,40.03-46.04,100.08s46.04,116.11,46.04,116.11c0,0,74.08,57.4,177.18,22.7Z"/>
      <path class="cls-1" d="m4.66,446.69h8.21v10.49c3.17-8.42,9.97-12.26,17.13-12.26,8.45,0,15.6,4.43,20.76,12.26.59,1.04,1.06,2.07,1.64,3.11.35-1.04.82-1.93,1.29-3.11,4.46-7.84,12.78-12.26,20.29-12.26,6.92,0,13.61,4.28,19.94,12.26,5.16,6.51,5.98,14.78,5.98,24.25v46.13h-8.68v-45.09c0-5.92-.35-12.42-3.17-17.45-3.52-6.21-8.56-9.61-14.55-9.61-5.51,0-11.03,3.55-14.19,9.16-2.82,5.03-2.7,11.98-2.7,17.9v45.09h-8.68v-46.28c0-6.06-.23-10.79-3.05-16.12-3.28-5.91-8.68-9.75-14.43-9.75-5.4,0-10.91,2.95-14.07,8.58-3.05,5.32-3.05,11.09-3.05,17.29v46.28H4.66v-80.88Z"/>
      <path class="cls-1" d="m120.89,491.04c.47,15.38,12.32,27.95,24.16,27.95,9.5,0,19.12-6.65,22.99-17.74h9.03c-4.46,16.26-17.6,28.23-31.2,28.23-18.77,0-33.67-18.63-33.67-42.29s14.78-42.28,33.43-42.28c10.09,0,19.35,5.76,25.81,15.66,5.98,9.32,7.27,18.78,7.51,30.46h-58.06Zm49.38-9.9c-2.23-14.34-12.67-25.72-24.52-25.72s-22.76,10.79-24.87,25.72h49.38Z"/>
      <path class="cls-1" d="m190.91,418.3h8.68v109.26h-8.68v-109.26Z"/>
      <path class="cls-1" d="m279.7,527.56h-8.33v-15.23c-4.93,11.38-14.78,17.15-24.87,17.15s-20.06-5.32-28.27-17.15c-2.35-3.25-6.34-13.46-6.34-25.72,0-10.8,4.34-21.89,6.69-24.55,9.74-13.15,18.77-17.15,27.68-17.15,10.09,0,20.29,5.61,25.1,17.15v-15.38h8.33v80.88Zm-59.12-40.07c0,17.75,12.2,31.49,25.92,31.49s24.87-14.49,24.87-31.35c0-17.89-10.79-32.23-25.1-32.23s-25.69,14.19-25.69,32.08Z"/>
      <path class="cls-1" d="m294.47,446.69h8.21v10.49c3.17-8.42,9.97-12.26,17.13-12.26,8.45,0,15.6,4.43,20.76,12.26.59,1.04,1.06,2.07,1.64,3.11.35-1.04.82-1.93,1.29-3.11,4.46-7.84,12.78-12.26,20.29-12.26,6.92,0,13.61,4.28,19.94,12.26,5.16,6.51,5.98,14.78,5.98,24.25v46.13h-8.68v-45.09c0-5.92-.35-12.42-3.17-17.45-3.52-6.21-8.56-9.61-14.55-9.61-5.51,0-11.03,3.55-14.19,9.16-2.82,5.03-2.7,11.98-2.7,17.9v45.09h-8.68v-46.28c0-6.06-.24-10.79-3.05-16.12-3.28-5.91-8.68-9.75-14.43-9.75-5.4,0-10.91,2.95-14.07,8.58-3.05,5.32-3.05,11.09-3.05,17.29v46.28h-8.68v-80.88Z"/>
      <path class="cls-1" d="m404.48,418.3h8.68v18.63h-8.68v-18.63Zm0,28.38h8.68v80.88h-8.68v-80.88Z"/>
      <path class="cls-1" d="m427.94,446.69h8.21v11.68c4.93-8.73,11.5-13.45,19.94-13.45s17.13,4.58,22.76,13.45c5.04,7.69,5.87,16.41,5.87,26.61v42.58h-8.68v-42.58c0-6.95-.47-13.45-3.75-19.22-3.87-6.8-9.97-10.35-16.54-10.35-5.98,0-12.2,3.7-15.72,9.9-3.4,5.77-3.4,12.87-3.4,19.67v42.58h-8.68v-80.88Z"/>
      <path class="cls-1" d="m564.82,527.56h-8.33v-15.23c-4.93,11.38-14.78,17.15-24.87,17.15s-20.06-5.32-28.27-17.15c-2.35-3.25-6.33-13.46-6.33-25.72,0-10.8,4.34-21.89,6.69-24.55,9.74-13.15,18.77-17.15,27.68-17.15,10.09,0,20.29,5.61,25.1,17.15v-15.38h8.33v80.88Zm-59.12-40.07c0,17.75,12.2,31.49,25.92,31.49s24.87-14.49,24.87-31.35c0-17.89-10.79-32.23-25.1-32.23s-25.69,14.19-25.69,32.08Z"/>
    </g>
  </g>
</svg>