<?xml version="1.0" encoding="UTF-8"?>
<svg id="Layer_2" data-name="Layer 2" xmlns="http://www.w3.org/2000/svg" viewBox="0 0 859.8 1522">
  <defs>
    <style>
      .cls-1 {
        fill: #fff;
      }

      .cls-2 {
        fill: #ffad05;
      }
    </style>
  </defs>
  <g id="Layer_1-2" data-name="Layer 1">
    <g>
      <g>
        <polygon class="cls-1" points="582.24 909.97 759.87 804.61 759.87 175.38 674.83 225.86 604.95 267.12 553.12 297.93 459.89 236.99 511.04 206.6 859.8 0 859.8 861.64 582.24 1026.09 582.24 909.97"/>
        <polygon class="cls-1" points="844.75 26.42 844.75 853.07 774.91 894.46 667.14 958.28 597.3 999.67 597.3 918.54 667.14 877.15 774.91 813.18 774.91 148.94 667.14 212.91 597.3 254.16 553.5 280.19 488.33 237.6 518.73 219.54 597.3 173.03 667.14 131.63 774.91 67.81 844.75 26.42"/>
      </g>
      <polygon class="cls-1" points="187.23 440.97 308.78 369.03 406.87 427.1 287.14 497.9 287.14 1346.56 368.09 1298.6 368.09 530.83 468 474.63 468 1355.5 421.89 1382.91 390.8 1401.28 187.23 1522 187.23 440.97"/>
      <polygon class="cls-1" points="452.94 500.37 452.94 1346.94 414.2 1369.98 383.15 1388.32 272.09 1454.22 202.29 1495.59 202.29 449.55 272.09 408.18 308.77 386.52 377.3 427.09 272.09 489.32 272.09 1372.96 345.67 1329.41 383.15 1307.17 383.15 539.63 452.94 500.37"/>
      <polygon class="cls-2" points="652.16 398.76 652.16 783.1 526.54 857.41 526.54 741.41 552.2 726.44 552.2 455.42 99.96 187.61 99.96 887.34 135.78 908.72 135.78 1024.72 0 944.01 0 12.27 210.08 136.82 493.4 304.67 496.6 306.28 652.16 398.76"/>
      <polygon class="cls-2" points="637.19 407.31 637.19 774.55 526.54 839.77 526.54 759.05 567.17 734.99 567.17 446.87 84.99 160.88 84.99 895.9 135.78 926.37 135.78 1007.08 14.97 935.45 14.97 38.47 157.69 122.92 202.6 149.65 404.13 268.86 485.91 317.5 488.58 319.11 526 341.56 637.19 407.31"/>
    </g>
  </g>
</svg>