<?xml version="1.0" encoding="UTF-8"?>
<svg id="Layer_2" data-name="Layer 2" xmlns="http://www.w3.org/2000/svg" viewBox="0 0 1155.89 502">
  <defs>
    <style>
      .cls-1 {
        fill: #fff;
      }

      .cls-2 {
        fill: #ffad05;
      }
    </style>
  </defs>
  <g id="Layer_1-2" data-name="Layer 1">
    <g>
      <polygon class="cls-1" points="191.97 300.13 250.56 265.38 250.56 57.85 222.51 74.49 199.46 88.1 182.37 98.27 151.62 78.16 168.49 68.14 283.52 0 283.52 284.2 191.97 338.43 191.97 300.13"/>
      <polygon class="cls-1" points="278.56 8.71 278.56 281.37 255.52 295.02 219.98 316.07 196.94 329.72 196.94 302.96 219.98 289.31 255.52 268.21 255.52 49.13 219.98 70.23 196.94 83.83 182.49 92.42 161 78.37 171.03 72.41 196.94 57.07 219.98 43.42 255.52 22.37 278.56 8.71"/>
      <polygon class="cls-1" points="61.69 145.45 101.78 121.72 134.13 140.87 94.64 164.22 94.64 444.13 121.34 428.32 121.34 175.08 154.29 156.55 154.29 447.08 139.08 456.12 128.83 462.18 61.69 502 61.69 145.45"/>
      <polygon class="cls-1" points="149.33 165.04 149.33 444.26 136.55 451.86 126.31 457.91 89.68 479.64 66.65 493.29 66.65 148.27 89.68 134.63 101.77 127.48 124.38 140.87 89.68 161.39 89.68 452.84 113.94 438.48 126.31 431.14 126.31 177.99 149.33 165.04"/>
      <polygon class="cls-2" points="215.06 131.43 215.06 258.32 173.61 282.78 173.61 244.56 182.1 239.47 182.1 150.28 32.96 61.78 32.96 292.64 44.68 299.6 44.68 337.82 0 311.32 0 4.02 69.14 45.13 162.74 100.51 163.76 101.02 215.06 131.43"/>
      <polygon class="cls-2" points="209.96 134.32 209.96 255.44 173.61 277.01 173.61 250.17 187.03 242.36 187.03 147.4 28.03 53.12 28.03 295.53 44.68 305.38 44.68 332.22 4.93 308.61 4.93 12.69 51.98 40.55 66.59 49.38 133.18 88.62 160.19 104.76 161.04 105.27 173.44 112.57 209.96 134.32"/>
      <path class="cls-2" d="m457.69,143.25L491.42,5.41h29.03v201.22h-27.79v-112.92l-24.82,112.92h-19.69l-25.54-112.92v112.92h-28.1V5.41h29.03l34.15,137.84Z"/>
      <path class="cls-2" d="m654.9,5.41h44.71c25.78.07,38.67,14.19,38.67,42.36v116.61c0,28.1-13.5,42.19-40.51,42.25h-42.87V5.41Zm29.03,28.61v143.99h12.72c8.41,0,12.62-4.55,12.62-13.64V47.77c0-9.16-4.21-13.75-12.62-13.75h-12.72Z"/>
      <path class="cls-2" d="m762.89,5.41h75.28v28.61h-46.25v84.41h39.79v28.71h-39.79v30.87h46.25v28.61h-75.28V5.41Z"/>
      <path class="cls-2" d="m859.71,5.41h42.25c25.78.07,38.67,14.19,38.67,42.36v57.02c0,17.71-7.62,29.37-22.87,34.97l32.61,66.87h-31.79l-26.15-61.74-3.69.51v61.23h-29.03V5.41Zm29.03,28.61v84.41h6.66c4.04,0,6.81-.27,8.31-.82,5.27-2.12,7.9-6.39,7.9-12.82v-57.02c0-9.16-4.21-13.75-12.62-13.75h-10.26Z"/>
      <path class="cls-2" d="m1101.54,147.35v20.2c0,9.09,4.23,13.64,12.72,13.64s12.62-4.55,12.62-13.64v-3.69c0-9.71-9.06-21.06-27.18-34.05-18.12-12.92-27.18-28.65-27.18-47.18v-38.15c0-28.17,13.88-42.25,41.64-42.25s41.74,14.09,41.74,42.25v27.08h-29.02v-27.08c0-9.02-4.21-13.57-12.62-13.64h-.21c-8.34,0-12.51,4.55-12.51,13.64v37.54c0,8.96,9.06,19.93,27.18,32.92,18.12,12.92,27.17,28.41,27.17,46.46v6.15c0,28.24-13.88,42.36-41.64,42.36-27.83-.07-41.74-14.19-41.74-42.36v-20.2h29.03Z"/>
      <g>
        <polygon class="cls-2" points="543.87 166.39 537.88 206.63 567.11 206.63 575.21 145.39 543.87 166.39"/>
        <polygon class="cls-2" points="607.62 5.41 567.83 5.41 546.67 147.56 577.67 126.78 587.62 51.56 608.13 206.63 637.46 206.63 607.62 5.41"/>
      </g>
      <g>
        <polygon class="cls-2" points="963.97 163.44 957.55 206.63 986.78 206.63 995.26 142.47 963.97 163.44"/>
        <polygon class="cls-2" points="1027.29 5.41 987.49 5.41 966.78 144.6 997.72 123.86 1007.29 51.56 1027.8 206.63 1057.13 206.63 1027.29 5.41"/>
      </g>
      <path class="cls-1" d="m394.82,236.96h54.3c33.12.09,49.69,18.23,49.69,54.43v72.88c0,26.71-11.91,43.93-35.72,51.66-5.71,1.85-14.01,2.77-24.91,2.77h-6.06v76.84h-37.3V236.96Zm37.3,36.77v108.07h8.57c5.18,0,8.74-.35,10.67-1.05,6.77-2.72,10.15-8.21,10.15-16.47v-72.88c0-11.77-5.4-17.66-16.21-17.66h-13.18Z"/>
      <path class="cls-1" d="m654.22,236.96h96.74v36.77h-59.44v108.21h51.14v36.91h-51.14v76.71h-37.3V236.96Z"/>
      <path class="cls-1" d="m882.1,445.33c0,36.2-17.88,54.34-53.64,54.43-35.67,0-53.51-18.14-53.51-54.43v-208.37h37.3v208.37c0,11.68,5.41,17.53,16.21,17.53s16.34-5.85,16.34-17.53v-208.37h37.3v208.37Z"/>
      <path class="cls-1" d="m996.51,414.1l43.36-177.13h37.3v258.59h-35.72v-145.11l-31.89,145.11h-25.31l-32.82-145.11v145.11h-36.11V236.96h37.3l43.89,177.13Z"/>
      <path class="cls-1" d="m1112.37,236.96h37.3v258.59h-37.3V236.96Z"/>
      <g>
        <polygon class="cls-1" points="593.19 236.96 542.05 236.96 513.26 430.4 553.29 403.57 567.48 296.27 593.84 495.55 631.54 495.55 593.19 236.96"/>
        <polygon class="cls-1" points="509.98 452.46 503.56 495.55 541.12 495.55 550.41 425.37 509.98 452.46"/>
      </g>
    </g>
  </g>
</svg>